<svg width="37" height="24" viewBox="0 0 37 24" fill="none" xmlns="http://www.w3.org/2000/svg">
<g clip-path="url(#clip0_7_1589)">
<path fill-rule="evenodd" clip-rule="evenodd" d="M15.9993 6C16.6055 6 17.187 5.78929 17.6157 5.41421C18.0444 5.03914 18.2852 4.53043 18.2852 4C18.2852 3.46957 18.0444 2.96086 17.6157 2.58579C17.187 2.21071 16.6055 2 15.9993 2C15.393 2 14.8116 2.21071 14.3829 2.58579C13.9542 2.96086 13.7133 3.46957 13.7133 4C13.7133 4.53043 13.9542 5.03914 14.3829 5.41421C14.8116 5.78929 15.393 6 15.9993 6ZM24 13V11C23.1228 10.9896 22.2573 10.8219 21.4572 10.5071C20.657 10.1923 19.9392 9.73724 19.3481 9.17L17.8737 7.74C17.5977 7.50391 17.2704 7.31858 16.9111 7.19492C16.5519 7.07126 16.168 7.01179 15.7821 7.02C15.2044 7.07724 14.6719 7.32127 14.2892 7.70422C13.9065 8.08717 13.7011 8.58141 13.7133 9.09V15C13.7133 16.1 14.742 17 15.9993 17H21.7141V22H24V16.5C24 15.9696 23.7592 15.4609 23.3305 15.0858C22.9018 14.7107 22.3203 14.5 21.7141 14.5H18.2852V11.05C19.9007 12.221 21.9049 12.9049 24 13ZM13.7133 20C14.4227 20.0003 15.1148 19.8081 15.6941 19.4499C16.2734 19.0917 16.7115 18.5852 16.9479 18H19.3139C19.1071 18.8849 18.6303 19.7043 17.934 20.3711C17.2377 21.038 16.348 21.5273 15.3593 21.7872C14.3707 22.0471 13.32 22.0679 12.3189 21.8473C11.3179 21.6267 10.4038 21.1729 9.67383 20.5343C8.94386 19.8956 8.42525 19.0959 8.1731 18.22C7.92095 17.3442 7.94466 16.4249 8.24173 15.5599C8.53879 14.6949 9.09811 13.9165 9.86027 13.3073C10.6224 12.6981 11.559 12.2809 12.5704 12.1V14.17C11.8065 14.4051 11.1624 14.8692 10.7521 15.48C10.3418 16.0908 10.1918 16.8089 10.3287 17.5072C10.4656 18.2055 10.8805 18.8388 11.5 19.2951C12.1195 19.7513 12.9036 20.0011 13.7133 20Z" fill="white"/>
</g>
<defs>
<clipPath id="clip0_7_1589">
<rect width="36" height="24" fill="white" transform="translate(0.670044)"/>
</clipPath>
</defs>
</svg>
