<svg width="188" height="109" viewBox="0 0 188 109" fill="none" xmlns="http://www.w3.org/2000/svg">
<path d="M136.785 46.3722C138.686 45.8418 140.787 45.8926 142.616 46.6774C143.795 47.2261 144.894 48.3924 144.764 49.7876C144.583 51.0992 143.863 52.2837 142.967 53.2283C142.457 53.7988 141.589 53.7588 140.917 53.5626C140.067 52.5889 139.612 51.0265 138.162 50.8013C136.832 50.834 135.411 51.4807 134.872 52.7705C134.156 54.4237 134.25 56.4874 135.356 57.948C136.553 59.6739 138.223 61.2507 138.495 63.4416C138.813 67.0132 137.323 70.8427 134.286 72.8556C131.824 74.5088 128.762 75.4934 125.794 74.9956C123.773 74.5887 121.676 73.4878 120.844 71.4895C120.063 69.8872 121.152 68.2158 121.777 66.7589C122.139 65.9813 122.786 64.6079 123.845 65.2837C125.208 66.6353 126.567 68.1686 128.513 68.6373C129.651 69.0297 131.278 68.4629 131.524 67.1803C131.571 65.7706 130.371 64.8041 129.68 63.7032C127.84 61.2108 127.761 57.81 128.769 54.9687C130.096 51.1755 132.916 47.6948 136.785 46.3722ZM170.364 40.6788C171.821 39.9703 173.806 39.7596 175.057 40.9913C175.925 41.6961 176.069 42.877 176.662 43.7671C177.754 44.6464 179.377 44.8244 180.158 46.0997C180.372 46.9826 179.999 47.8474 179.591 48.6104C177.881 51.5534 176.181 54.5327 174.949 57.7191C174.724 58.4894 174.399 59.6266 175.274 60.1135C176.243 60.2988 176.923 59.4849 177.566 58.9072C179.15 57.4067 180.241 55.5064 181.431 53.7007C181.872 52.9449 182.805 52.6724 183.622 52.9159C184.164 53.2756 184.247 53.9514 183.991 54.5218C182.957 57.4394 181.062 59.9318 179.106 62.2862C177.338 64.27 175.325 66.203 172.743 67.0314C171.503 67.4419 170.035 67.5582 168.922 66.7552C167.92 66.0649 167.75 64.7642 167.4 63.6923C165.483 65.4545 163.882 67.6817 161.445 68.7717C159.576 69.691 156.937 69.5892 155.606 67.7944C154.493 66.421 154.446 64.5789 154.522 62.893C152.468 65.876 150.19 68.7826 147.276 70.9626C145.935 71.9945 144.091 72.5904 142.457 71.9582C140.848 71.1988 140.407 69.2186 140.541 67.5873C140.765 63.8595 142.461 60.4441 144.001 57.116C145.827 53.0757 148.361 49.3552 149.684 45.0897C151.109 43.3929 154.091 42.7062 155.83 44.3339C156.694 45.0824 156.597 46.4049 156.264 47.3896C153.864 52.1747 150.932 56.6836 148.723 61.5668C148.39 62.2826 148.336 63.0747 148.271 63.8486C149.717 63.7468 150.668 62.4679 151.564 61.4687C155.519 56.4765 159.023 51.1174 163.256 46.3541C165.339 44.1414 167.613 42.0122 170.364 40.6788ZM170.639 46.8518C167.042 50.1109 164.601 54.431 162.548 58.7837C161.998 60.168 160.99 61.7558 161.875 63.2164C164.066 62.6605 165.415 60.6767 166.76 59.009C169.215 55.6191 171.261 51.9167 172.83 48.0327C173.014 47.3314 173.535 46.3141 172.805 45.78C171.941 45.6964 171.254 46.3432 170.639 46.8518ZM64.8601 34.7347C66.4147 33.9935 68.7574 34.266 69.5094 36.01C70.6736 38.9893 67.9837 42.2484 65.0589 42.6771C63.479 42.9969 61.7038 42.034 61.3567 40.4027C60.9301 37.972 62.6764 35.6139 64.8601 34.7347ZM156.687 31.5155C158.368 30.7198 160.83 31.2539 161.384 33.2232C162.255 36.693 158.546 40.2065 155.143 39.418C153.968 39.0874 153.036 37.9502 153.039 36.7039C152.909 34.404 154.626 32.3221 156.687 31.5155ZM122.695 18.679C123.682 17.8433 124.8 16.7133 126.202 16.9422C127.11 17.2874 127.33 18.3047 127.742 19.0786C128.155 20.0705 128.928 20.8335 129.485 21.7346C130.183 22.9699 129.756 24.4233 129.391 25.6949C128.162 29.4518 126.47 33.0343 125.179 36.7693C123.888 40.8314 123.061 45.0279 121.954 49.1408C124.076 48.941 126.455 48.2616 128.422 49.4024C128.936 50.8303 128.451 52.9122 126.853 53.4173C124.832 54.1694 122.645 54.2965 120.62 55.0377C119.442 60.8511 118.758 66.7443 118.079 72.634C117.963 73.8947 117.974 75.1882 117.558 76.3981C116.951 78.193 114.535 78.7961 112.977 77.935C111.661 77.132 111.079 75.5806 110.848 74.1273C110.584 72.1653 110.725 70.1742 110.963 68.2158C111.513 64.3463 112.363 60.5277 113.263 56.7272C109.796 57.6828 106.325 58.6347 102.923 59.801C98.2843 68.8735 93.8844 78.1239 90.663 87.814C90.0087 89.7106 89.9797 92.4102 87.8503 93.2931C84.6217 93.9071 81.6644 90.2048 82.749 87.1055C85.4714 78.9015 89.1916 71.0716 93.0528 63.3581C90.3087 64.4953 87.6334 65.8106 85.0592 67.3075C84.2024 67.8779 82.9876 67.867 82.203 67.1731C80.6846 65.9886 80.9702 63.7759 81.1835 62.09C82.015 60.2734 84.1084 59.7865 85.757 59.0053C89.6977 57.2105 93.8446 55.9206 97.9264 54.5327C102.601 46.583 107.363 38.6696 112.645 31.1086C115.739 26.7704 118.823 22.3632 122.695 18.679ZM107.077 52.1238C109.64 51.5461 112.204 50.9648 114.789 50.4888C116.669 43.313 118.82 36.2098 121.401 29.2556C116.162 36.5731 111.499 44.2867 107.077 52.1238ZM49.003 18.4101C49.8924 17.7016 50.8721 16.7715 52.0977 16.9204C53.1426 17.2511 53.3957 18.4319 53.862 19.2857C54.5309 20.7282 56.147 21.8291 55.8758 23.6021C55.4058 26.8104 53.7897 29.6952 52.734 32.7327C50.46 37.9792 49.3898 43.6218 47.987 49.1408C52.2098 48.4505 56.447 47.7783 60.7096 47.3896C62.7017 47.1171 64.5274 49.2971 63.5838 51.19C61.3604 55.6009 58.9055 59.9209 57.0508 64.5135C56.6857 65.3782 56.5338 66.3083 56.4724 67.2421C58.0053 67.2203 58.8332 65.7415 59.8094 64.7823C63.8116 60.1607 67.1594 54.9142 69.5022 49.2498C70.0337 48.2289 69.7336 46.7356 70.8688 46.1034C72.3873 45.1696 74.542 44.3594 76.1545 45.5293C77.391 46.4812 76.6209 48.109 76.3606 49.3443C77.6151 47.7565 78.9745 46.2087 80.6412 45.0424C82.6333 43.5455 85.6377 44.8753 86.6102 46.9717C87.1236 48.1053 86.2812 49.2171 85.4352 49.8929C83.5733 51.4516 81.0027 51.4262 78.8552 52.3709C76.516 53.2065 74.9397 55.2485 73.5406 57.2068C70.7314 61.1163 68.5224 65.6434 68.1645 70.5157C68.1031 71.1152 68.1428 71.8819 67.5427 72.2343C66.3821 73.0046 65.0806 73.7676 63.6417 73.7385C62.5751 73.7203 61.7291 72.7902 61.5737 71.7729C61.147 70.3195 61.6098 68.8153 61.805 67.3729C60.1962 70.0761 58.1824 72.5867 55.7493 74.5851C54.4405 75.7368 52.5858 76.1765 50.9083 75.6787C49.6935 75.0429 49.0934 73.6404 48.9957 72.3251C48.768 69.6256 49.5959 66.9878 50.4491 64.4662C51.9206 60.6004 53.6379 56.829 55.4528 53.1121C52.4991 53.7007 49.5561 54.351 46.6385 55.0995C45.4093 60.8765 44.7766 66.7552 44.1258 72.6231C43.9234 74.1491 44.0933 75.8604 43.1569 77.1793C41.8951 78.7416 39.1221 78.7198 37.9688 77.0267C36.6854 75.1373 36.6094 72.7103 36.7468 70.5012C37.1373 65.8905 38.193 61.3706 39.2342 56.8726C35.7924 57.8463 32.3614 58.8636 28.934 59.8955C26.3887 64.6297 24.1147 69.5093 21.9165 74.4179C19.7147 79.6245 17.3539 84.8093 16.0234 90.3319C15.6402 91.6363 14.9171 93.2531 13.3734 93.3876C10.3364 93.4566 7.84905 90.1248 8.75651 87.2C9.92428 83.2796 11.5801 79.53 13.1926 75.7768C14.9822 71.5912 16.9887 67.5073 19.064 63.4598C16.309 64.5898 13.6228 65.876 11.0125 67.3111C9.8592 68.0632 8.2142 67.7907 7.38266 66.6898C6.11005 64.6879 6.35951 61.4251 8.73482 60.3533C13.2974 58.2496 18.0227 56.4838 22.842 55.0595C23.2723 54.8924 23.8399 54.8343 24.0785 54.3765C29.5956 44.8172 35.4055 35.3996 41.971 26.527C44.1511 23.6893 46.324 20.7972 49.003 18.4101ZM33.0519 52.1928C35.6803 51.5534 38.3918 51.1864 40.9515 50.3326C42.5784 43.1894 44.9176 36.2207 47.3869 29.3355C42.1229 36.6313 37.488 44.363 33.0519 52.1928Z" fill="white"/>
</svg>
