<svg width="27" height="24" viewBox="0 0 27 24" fill="none" xmlns="http://www.w3.org/2000/svg">
<g clip-path="url(#clip0_7_1048)">
<path d="M27.3333 11H21.7733L26.0933 7.76L24.2133 6.34L18 11H15.3333V9L21.5466 4.34L19.6533 2.93L15.3333 6.17V2H12.6666V6.17L8.34663 2.93L6.45329 4.34L12.6666 9V11H9.99996L3.78663 6.34L1.90663 7.76L6.22663 11H0.666626V13H6.22663L1.90663 16.24L3.78663 17.66L9.99996 13H12.6666V15L6.45329 19.66L8.34663 21.07L12.6666 17.83V22H15.3333V17.83L19.6533 21.07L21.5466 19.66L15.3333 15V13H18L24.2133 17.66L26.0933 16.24L21.7733 13H27.3333V11Z" fill="white"/>
</g>
<defs>
<clipPath id="clip0_7_1048">
<rect width="27" height="24" fill="white"/>
</clipPath>
</defs>
</svg>
