<svg width="19" height="19" viewBox="0 0 19 19" fill="none" xmlns="http://www.w3.org/2000/svg">
<g clip-path="url(#clip0_7_2410)">
<path d="M8.49166 18.1117L11.5746 11.5056L16.4418 11.5056C17.6124 11.5056 19 10.6707 19 9.49996C19 8.32928 17.6124 7.49431 16.4418 7.49431L11.5746 7.49431L8.49166 0.888289C8.40294 0.742746 8.19074 0.623291 8.02026 0.623291L5.91605 0.62329C5.74501 0.62329 5.6499 0.755511 5.70442 0.917271L7.52975 7.90196L3.10331 7.90196C3.10331 7.90196 2.27065 6.76608 1.81606 6.08534C1.36262 5.40461 0.45459 5.70672 0.45459 6.23668C0.45459 6.76608 0.454589 8.78101 0.454589 8.78101C0.454589 8.78101 -3.71461e-07 9.12134 -3.88012e-07 9.49996C-4.04562e-07 9.87859 0.454589 10.219 0.454589 10.219C0.454589 10.219 0.454589 12.2339 0.454589 12.7633C0.454589 13.2932 1.36262 13.5954 1.81606 12.9146C2.27065 12.2339 3.10331 11.098 3.10331 11.098L7.52971 11.098L5.70438 18.0821C5.64986 18.2445 5.74498 18.3767 5.91601 18.3767L8.02023 18.3767C8.19074 18.3766 8.40294 18.2578 8.49166 18.1117Z" fill="#929292"/>
</g>
<defs>
<clipPath id="clip0_7_2410">
<rect width="19" height="19" fill="white" transform="translate(19) rotate(90)"/>
</clipPath>
</defs>
</svg>
