<svg width="125" height="45" viewBox="0 0 125 45" fill="none" xmlns="http://www.w3.org/2000/svg">
<path d="M17.7615 32.5275L13.9517 20.5183L13.6618 19.4623L13.3927 20.5183L9.66566 32.5275H17.7615ZM0.306763 44.6402L11.1357 9.50293H16.5606L27.4724 44.6402H21.4678L19.1488 37.2069H8.19557L5.89725 44.6402H0.306763Z" fill="#696969"/>
<path d="M34.4709 5.42403H30.9095V0.723877H39.8336V39.9608H49.296V44.6403H34.4709V5.42403Z" fill="#696969"/>
<path d="M57.7025 8.28139C58.4065 7.78446 59.1104 7.47388 59.8558 7.47388C60.6012 7.47388 61.3259 7.76375 62.0299 8.28139C62.8581 8.88185 63.2308 9.77219 63.2308 10.8489C63.2308 12.7538 61.6572 14.2032 59.8558 14.2032C59.1311 14.2032 58.4065 13.9133 57.7025 13.3957C56.8742 12.7952 56.5016 11.9049 56.5016 10.8489C56.5016 9.79289 56.8742 8.88185 57.7025 8.28139ZM57.1848 23.6863H50.4141V19.0068H62.5476V39.9815H69.339V44.661H57.1848V23.6863Z" fill="#696969"/>
<path d="M77.4555 5.42403H73.8942V0.723877H82.8183V39.9608H92.3014V44.6403H77.4555V5.42403Z" fill="#696969"/>
<path d="M114.829 32.5275L111.019 20.5183L110.729 19.4623L110.46 20.5183L106.733 32.5275H114.829ZM97.3743 44.6402L108.203 9.50293H113.628L124.519 44.6402H118.515L116.196 37.2069H105.242L102.944 44.6402H97.3743Z" fill="#696969"/>
</svg>
