<svg width="48" height="48" viewBox="0 0 48 48" fill="none" xmlns="http://www.w3.org/2000/svg">
<circle cx="23.6333" cy="24.2387" r="23.4536" fill="#09E5C2"/>
<path d="M17.442 28.3085C16.8562 28.8943 16.8562 29.844 17.442 30.4298C18.0278 31.0156 18.9776 31.0156 19.5633 30.4298L17.442 28.3085ZM29.5307 19.8411C29.5307 19.0127 28.8591 18.3411 28.0307 18.3411L14.5307 18.3411C13.7023 18.3411 13.0307 19.0127 13.0307 19.8411C13.0307 20.6696 13.7023 21.3411 14.5307 21.3411H26.5307V33.3411C26.5307 34.1696 27.2023 34.8411 28.0307 34.8411C28.8591 34.8411 29.5307 34.1696 29.5307 33.3411L29.5307 19.8411ZM19.5633 30.4298L29.0914 20.9018L26.97 18.7805L17.442 28.3085L19.5633 30.4298Z" fill="black"/>
</svg>
