<svg width="36" height="24" viewBox="0 0 36 24" fill="none" xmlns="http://www.w3.org/2000/svg">
<g clip-path="url(#clip0_7_1437)">
<path fill-rule="evenodd" clip-rule="evenodd" d="M25.5 13V4.83C25.5 3.27 23.9125 2 21.9625 2C21.025 2 20.125 2.3 19.4625 2.83L17.9 4.08C17.7 4.03 17.4875 4 17.2625 4C16.7625 4 16.3 4.12 15.9125 4.32L19.3625 7.08C19.6125 6.77 19.7625 6.4 19.7625 6C19.7625 5.82 19.725 5.66 19.675 5.49L21.2375 4.24C21.3828 4.12512 21.5674 4.04722 21.7679 4.0161C21.9685 3.98498 22.1761 4.00203 22.3645 4.06512C22.553 4.12821 22.7139 4.2345 22.827 4.37061C22.9401 4.50673 23.0003 4.66657 23 4.83V13H3V19C3 20.1 4.125 21 5.5 21C5.5 21.55 6.0625 22 6.75 22H24.25C24.9375 22 25.5 21.55 25.5 21C26.875 21 28 20.1 28 19V13H25.5ZM5.5 19H25.5V15H5.5V19Z" fill="white"/>
</g>
<defs>
<clipPath id="clip0_7_1437">
<rect width="36" height="24" fill="white"/>
</clipPath>
</defs>
</svg>
