<svg width="240" height="68" viewBox="0 0 240 68" fill="none" xmlns="http://www.w3.org/2000/svg">
<path d="M65.2203 41.3167C61.4815 44.3899 55.0947 50.0502 52.2909 50.8586C49.7983 50.5352 47.6178 46.977 46.6831 44.3899C38.5829 50.2115 18.3318 54.7398 12.1007 49.5645C9.92015 47.7861 8.51827 46.3303 8.51827 44.2279C8.51827 42.9338 8.82973 41.8018 9.29691 40.5084C9.7641 39.2146 10.6988 37.7589 11.7895 36.3035L15.3719 31.6136C5.71419 30.6428 11.1663 25.9533 20.5126 25.9533C23.7839 22.5571 27.0551 19.1606 29.236 17.7051C31.4168 16.2497 33.2862 15.603 34.9999 15.603C35.1556 15.603 35.3117 15.603 35.4671 15.7644C35.6228 15.9264 35.6228 16.0881 35.6228 16.2497C35.6228 16.4114 35.6228 16.5731 35.4671 16.8964C35.3117 17.2198 35.1556 17.3818 34.8442 17.7051L29.0806 24.3362C34.5324 23.5275 39.2055 22.2334 42.6329 20.6163C46.0599 18.9992 47.4621 17.2198 47.4621 15.603C47.4621 14.6323 46.8388 13.8239 45.5927 13.3386C44.3462 12.6915 42.7886 12.5302 40.7631 12.5302C37.9597 12.5302 34.6884 12.8539 31.1054 13.6623C27.5223 14.309 23.7839 15.441 19.5782 16.8964C20.9801 17.3818 21.1358 18.1905 19.8897 19.3226L11.4778 21.5867C10.5431 21.7484 5.24668 24.4975 6.3371 20.4546C7.27179 16.8964 11.166 12.0448 13.1911 10.7511C14.1258 10.1041 15.3719 9.45738 17.0856 8.97236C25.4975 6.38455 41.6982 2.18 50.5773 7.51695C55.8737 12.2069 51.512 20.4546 45.7484 22.5571C40.6077 24.3362 34.3767 26.6003 25.6533 27.5703L23.7839 29.3491C28.6128 30.3195 51.8238 31.4515 42.6329 42.6108C42.1653 43.0958 41.6982 43.7429 41.231 44.2279C42.9443 43.4192 44.8134 42.2868 46.527 40.3467C46.8388 39.6996 47.1503 39.0526 47.6178 38.4056C48.8639 36.6268 50.4216 34.8481 52.6024 33.3923C57.4316 29.8345 63.3509 26.9236 69.4263 26.1149C70.2052 25.9533 72.23 26.2769 73.009 27.0853C73.6322 27.894 73.9437 28.2174 74.2555 28.8644C74.4109 29.0261 74.2555 29.5111 74.0994 29.6728C73.6322 29.9965 72.5418 30.6432 71.9186 30.9665C74.5666 32.4223 74.7226 34.0393 70.6724 38.7296C64.1299 47.9474 71.9186 46.654 78.4611 39.8617V39.6996C80.1748 37.9205 81.7324 36.3035 82.9785 34.8484C84.2253 33.3926 84.6925 32.7459 85.7823 31.2902C83.9136 30.9665 80.798 31.9372 80.0187 31.2902C79.7076 30.8048 80.9534 28.8644 82.0442 27.5703C84.8479 23.6891 86.873 23.5275 91.2347 23.3658C91.3905 23.0421 92.0137 22.5571 92.1694 22.0721C94.506 16.5734 104.632 14.956 97.4655 23.2041C98.5562 23.2041 100.581 23.8508 101.204 23.5275C101.36 23.3658 100.737 25.9533 100.27 26.6003C99.3352 28.379 97.6209 30.6432 96.5311 31.1289C96.0639 31.4519 94.0388 31.6139 93.2598 31.6139C92.6366 31.6139 92.1694 31.4519 91.8576 31.4519C91.5465 31.4519 91.2347 31.6139 90.9233 31.6139C89.0536 33.8777 87.652 36.1418 86.5613 38.5676C85.4705 40.9937 84.8479 43.2582 84.8479 45.0373C84.8479 45.6833 85.0033 46.1693 85.3151 46.4923C85.6269 46.8157 86.0941 46.9774 86.7176 46.9774C87.652 46.9774 89.0536 46.3303 91.0787 45.0373C92.7927 43.9052 95.1296 42.1258 97.9327 39.6996C98.2445 39.0529 98.5562 38.2446 98.868 37.4359C101.828 29.0261 116.315 23.3658 109.616 34.0397C108.214 36.3038 105.878 38.2446 103.074 40.5087C102.918 40.9937 102.918 41.3171 102.762 41.8021C102.762 42.1258 102.762 42.4491 102.606 42.7728C101.828 45.0373 103.385 46.3303 105.878 45.8453C106.968 45.6833 108.526 45.1983 110.395 43.9052C111.953 42.9341 113.511 41.8021 115.224 40.185C115.691 38.4059 116.47 36.4658 117.405 34.5247C119.119 31.1289 122.078 27.409 126.285 22.5574C130.179 18.0288 141.706 7.51729 144.666 7.67862C145.133 7.67862 145.444 7.84064 145.757 8.16399C146.067 8.48733 146.224 8.81068 146.224 9.29571C146.224 10.7515 142.952 14.6327 138.434 20.293C133.917 25.9533 126.596 32.4223 119.119 40.3467V42.6111C123.168 38.4059 139.214 24.9832 141.238 26.7623C150.273 35.0097 133.917 41.4787 131.736 43.2582L131.114 43.7432C134.541 50.6969 141.083 44.2282 147.002 39.0526L147.625 41.6408C143.731 45.6833 140.616 48.4328 138.124 50.0505C134.696 52.3146 131.425 53.7697 128.31 50.6965C127.063 49.4035 124.882 47.1394 123.481 44.0662C121.456 45.0369 121.456 45.6833 120.677 47.1394C118.184 52.3147 114.912 51.6676 114.912 43.7432C112.732 46.169 110.862 47.9477 109.149 49.2415C106.968 50.8586 104.787 51.6676 103.074 51.6676C101.205 51.6676 99.647 50.8586 98.5562 49.4035C97.4665 47.9477 96.9983 45.8453 96.9983 43.2578C94.1942 46.0073 91.5465 48.1094 89.2099 49.7268C86.2505 51.6676 83.7581 52.7997 81.8884 52.7997C80.4865 52.7997 79.5519 52.4756 78.7729 51.6676C77.9942 51.0206 77.6825 49.8885 77.6825 48.5944C77.6825 47.4624 77.8385 46.3303 78.3057 45.0369C78.7729 43.7432 79.3961 42.2871 80.1748 40.8317C77.5267 46.007 55.4065 63.6346 65.2203 41.3167ZM22.0705 31.9369L19.1107 35.3334C18.3318 36.3035 17.7088 37.1125 17.2413 38.0826C16.7742 38.8906 16.4624 39.6996 16.4624 40.1847C16.4624 41.1551 17.0856 41.9638 18.4878 42.6108C19.8897 43.4192 21.4473 43.7429 23.3167 43.7429C26.588 43.7429 29.7032 42.9341 32.819 41.3171C35.9343 39.6996 37.4925 38.2446 37.4925 36.7885C37.4925 35.8184 36.0903 34.8481 33.4423 34.0393C30.7936 33.069 27.0551 32.4219 22.0705 31.9369ZM127.686 40.1847L130.178 41.6404C133.138 39.3763 136.254 37.4355 137.5 36.3035C142.329 31.7749 136.409 33.3923 134.384 34.8481C132.514 36.3035 130.023 37.9205 127.686 40.1847ZM110.707 24.4975C110.707 23.0421 111.33 21.7484 112.576 20.4546C113.822 19.1606 115.069 18.5139 116.314 18.5139C116.937 18.5139 117.56 18.6755 117.872 18.9992C118.184 19.3226 118.339 19.9693 118.339 20.6163C118.339 21.91 117.716 23.2041 116.47 24.4975C115.224 25.9533 114.133 26.5999 112.887 26.5999C112.265 26.5999 111.641 26.4383 111.174 25.9533C110.862 25.6296 110.707 25.1445 110.707 24.4975ZM68.803 32.4219C49.4869 37.7585 49.4869 46.169 52.7581 46.169C53.8485 46.169 55.8737 44.8749 59.1449 42.1254C62.4162 39.2143 65.5318 36.6265 68.803 32.4219Z" fill="#C0486C"/>
<path d="M38.5827 0.239341C34.9997 3.79719 22.5375 22.7185 11.01 37.5977L9.29669 39.6998L8.98524 41.4789C8.98524 41.8022 -5.65778 42.4492 2.44237 61.3702C1.508 62.9883 0.728705 62.9883 0.573303 67.1929C0.884759 67.3549 1.19654 67.3549 1.508 67.1929C1.66373 64.6054 2.28697 62.6643 5.40218 60.2385C8.20627 57.813 16.4621 51.3437 18.4876 43.4193C18.643 42.6113 18.9548 41.9642 19.2662 41.1552L44.8132 4.44457C44.8132 4.44423 41.5422 -1.21641 38.5827 0.239341Z" fill="#F9D828"/>
<path d="M41.231 3.15004C37.8036 7.51661 28.3016 22.3954 16.7741 37.2735L14.749 37.4355C18.0203 39.2143 17.3971 40.3463 18.4875 43.2575C18.6432 43.5808 18.955 41.6404 19.2664 41.155L44.8134 4.44411C44.8134 4.44411 43.5676 2.17999 41.8536 0.885922C41.0749 0.239224 42.7886 2.82669 41.231 3.15004Z" fill="#E6B52D"/>
<path d="M43.2555 4.76715C39.8285 9.13406 32.3516 22.0717 20.8237 37.1122C20.6683 36.4652 20.5123 35.8185 20.6683 35.0094C18.6429 36.4655 17.241 39.8613 18.4872 43.4188C18.6429 42.6108 19.2661 41.6404 19.2661 41.1547L44.8131 4.44414C44.6577 4.28213 44.5019 2.82638 43.2555 1.85634C42.4765 1.2093 44.1902 3.95878 43.2555 4.76715Z" fill="#83582E"/>
<path d="M11.1662 46.9773C10.543 51.3435 7.73922 52.961 7.11598 53.608C6.95993 53.7697 7.11598 56.5191 6.8042 59.1063C9.29683 56.3571 22.2262 44.3902 13.3471 39.6996C17.2413 42.9341 12.2566 46.6543 11.1662 46.9773Z" fill="#83582E"/>
<path d="M7.89527 51.5051C13.3474 46.0068 8.05068 41.3166 4.31222 44.8748C-1.29563 50.2114 3.53325 56.0333 7.89527 51.5051Z" fill="#6A4D31"/>
<path d="M180.493 38.729C179.247 39.8611 166.63 50.6963 164.605 50.3729C160.399 49.8879 155.881 41.3165 158.062 37.1119C158.84 35.6562 159.776 33.5537 161.49 31.7746C166.94 25.9527 176.754 21.2631 185.323 19.3223C186.257 19.1603 187.191 19.1603 188.438 19.1603C190.619 19.8073 192.644 21.5864 192.488 23.3652C192.488 23.6889 192.333 23.8502 192.177 24.0122C192.021 24.1736 191.553 24.3359 191.086 24.6593L189.684 25.4676C191.243 25.9527 191.865 26.923 192.021 28.2171C192.332 30.4812 189.684 33.2304 187.659 35.8182C183.765 40.6694 184.232 45.1977 189.996 42.2865C193.735 40.5081 199.186 34.8478 202.769 32.0983C207.599 26.7617 215.854 25.306 211.025 33.3921C209.624 35.6562 206.975 37.5973 204.171 39.8611C204.171 40.0224 203.548 41.1545 203.548 41.3165C203.548 43.9043 204.794 45.3597 207.13 45.0367C209.312 44.7127 211.181 43.5806 212.739 42.1252C214.453 40.5081 216.011 38.729 217.567 36.6262C217.1 36.6262 216.321 36.6262 216.166 36.1412C214.453 33.3921 217.879 29.1875 218.658 28.3785C218.815 28.2171 223.799 23.2035 225.045 25.6293C225.357 26.1143 224.889 27.5697 224.578 28.0554C226.603 27.8934 228.317 27.4084 230.497 27.2464C231.432 27.0847 234.081 26.5997 234.392 27.0847C236.884 29.8342 236.729 32.2603 234.08 34.6861C231.588 36.9502 230.03 39.052 229.251 40.5081C227.693 43.2576 228.939 45.3597 232.055 44.2276C233.924 43.5806 236.417 41.3165 239.376 38.567L240 40.8314C236.26 45.0367 232.678 48.1088 230.186 49.8883C223.643 54.2542 220.372 47.6238 223.02 41.9635C223.955 39.8611 225.668 37.4353 228.317 34.8478C226.759 35.1712 225.357 35.4942 224.266 35.6562C223.177 35.8182 222.241 35.9799 221.307 36.1412C220.372 37.5973 219.904 38.567 218.815 39.8611C215.543 43.5806 212.427 47.3001 210.091 49.0792C207.91 50.6963 205.573 51.8284 203.704 51.8284C198.875 51.99 197.628 46.6538 197.785 42.9336C197.785 42.4485 197.94 41.9635 197.94 41.6402C192.332 47.3008 182.986 53.2841 181.428 53.1221C173.639 51.99 179.559 41.8015 180.493 38.729ZM211.025 23.8502C210.87 22.3951 211.648 21.1011 212.895 19.8073C214.141 18.3519 218.503 16.7348 218.815 20.131C218.97 21.2631 218.191 22.5568 217.1 24.0122C215.854 25.468 214.764 26.1147 213.518 26.1147C212.895 26.1147 212.271 25.953 211.804 25.468C211.181 24.9826 211.025 24.4972 211.025 23.8502ZM185.167 27.4087C176.754 29.6725 172.081 32.7454 168.967 34.2008C161.489 38.0823 160.71 51.182 172.393 39.6991C175.976 36.4652 180.961 32.0983 185.167 27.4087Z" fill="#C0486C"/>
<path d="M39.3613 12.53C36.869 12.6914 34.2207 13.0151 31.4166 13.5004C30.3262 13.6621 29.2357 13.9854 28.1453 14.1475C25.4973 14.7942 22.8489 15.6029 19.8894 16.5729C21.2913 17.0583 21.447 17.8666 20.2009 18.999L11.7893 21.2632C10.8543 21.4248 5.55821 24.174 6.64863 20.1311C7.583 16.5729 11.4775 11.7217 13.5026 10.4276C14.4373 9.78089 15.6835 9.13386 17.3968 8.64883C21.7588 7.35476 28.1453 5.576 34.5325 4.92897C37.8034 4.60562 41.0747 4.60562 44.1902 5.09064L39.3613 12.53Z" fill="#C0486C"/>
</svg>
