<svg width="18" height="18" viewBox="0 0 18 18" fill="none" xmlns="http://www.w3.org/2000/svg">
<g clip-path="url(#clip0_7_1088)">
<path fill-rule="evenodd" clip-rule="evenodd" d="M8.25 5.25H14.25C15.0456 5.25 15.8087 5.56607 16.3713 6.12868C16.9339 6.69129 17.25 7.45435 17.25 8.25V15H15.75V12.75H2.25V15H0.75V3.75H2.25V10.5H8.25V5.25ZM7.5 7.5C7.5 7.79547 7.4418 8.08806 7.32873 8.36104C7.21566 8.63402 7.04992 8.88206 6.84099 9.09099C6.63206 9.29992 6.38402 9.46566 6.11104 9.57873C5.83806 9.6918 5.54547 9.75 5.25 9.75C4.95453 9.75 4.66194 9.6918 4.38896 9.57873C4.11598 9.46566 3.86794 9.29992 3.65901 9.09099C3.45008 8.88206 3.28434 8.63402 3.17127 8.36104C3.0582 8.08806 3 7.79547 3 7.5C3 6.90326 3.23705 6.33097 3.65901 5.90901C4.08097 5.48705 4.65326 5.25 5.25 5.25C5.84674 5.25 6.41903 5.48705 6.84099 5.90901C7.26295 6.33097 7.5 6.90326 7.5 7.5Z" fill="#BEBEBE"/>
</g>
<defs>
<clipPath id="clip0_7_1088">
<rect width="18" height="18" fill="white"/>
</clipPath>
</defs>
</svg>
