<svg width="37" height="24" viewBox="0 0 37 24" fill="none" xmlns="http://www.w3.org/2000/svg">
<g clip-path="url(#clip0_7_1569)">
<path fill-rule="evenodd" clip-rule="evenodd" d="M24.7 7H20.0885V5L17.7885 3H13.1885L10.8885 5V7H6.3C5.69 7 5.10499 7.21071 4.67365 7.58579C4.24232 7.96086 4 8.46957 4 9V12C4 12.5304 4.24232 13.0391 4.67365 13.4142C5.10499 13.7893 5.69 14 6.3 14H13.2V12H17.8V14H24.7C25.31 14 25.895 13.7893 26.3263 13.4142C26.7577 13.0391 27 12.5304 27 12V9C27 8.46957 26.7577 7.96086 26.3263 7.58579C25.895 7.21071 25.31 7 24.7 7ZM13.2 16V15H5.1615L5.15 19C5.15 19.5304 5.39232 20.0391 5.82365 20.4142C6.25499 20.7893 6.84 21 7.45 21H23.55C24.16 21 24.745 20.7893 25.1763 20.4142C25.6077 20.0391 25.85 19.5304 25.85 19V15H17.8V16H13.2ZM13.2 7H17.8V5H13.2V7Z" fill="white"/>
</g>
<defs>
<clipPath id="clip0_7_1569">
<rect width="36" height="24" fill="white" transform="translate(0.670044)"/>
</clipPath>
</defs>
</svg>
