<svg width="241" height="43" viewBox="0 0 241 43" fill="none" xmlns="http://www.w3.org/2000/svg">
<mask id="mask0_7_2415" style="mask-type:luminance" maskUnits="userSpaceOnUse" x="0" y="0" width="241" height="43">
<path d="M228.425 10.3923H239.843C240.835 10.3923 241.369 11.3011 240.708 11.874L225.145 25.5855C225.857 26.8104 226.569 28.0354 227.306 29.2603C229.468 32.9351 231.629 36.61 233.791 40.2848C234.477 41.4307 234.045 41.9642 232.443 41.9642C228.756 41.9642 225.068 41.9642 221.381 41.9642C219.677 41.9642 219.398 41.8259 218.762 40.5812C216.931 36.8866 215.1 33.192 213.269 29.5172C213.142 29.2406 212.989 28.9837 212.761 28.5886C211.947 32.1646 211.184 35.5826 210.421 39.0006C210.294 39.5735 210.167 40.1663 210.014 40.7392C209.811 41.5097 209.073 41.9642 208.056 41.9642C204.75 41.9642 201.444 41.9642 198.139 41.9642C196.943 41.9642 196.409 41.4702 196.613 40.5416C198.011 34.2984 199.435 28.0551 200.859 21.8119C202.334 15.2328 203.835 8.65363 205.284 2.09426C205.31 1.95596 205.335 1.83741 205.386 1.69911C205.666 0.711257 206.785 0.019757 208.081 0.019757H217.541C218.406 0.019757 219.093 0.592714 219.016 1.2447C219.016 1.34348 218.991 1.44227 218.965 1.54106L213.905 23.2146L226.772 11.0047C227.154 10.6096 227.764 10.3923 228.425 10.3923ZM186.771 41.9444C188.17 41.9444 188.806 41.5097 189.06 40.4824C190.128 35.8197 191.222 31.1768 192.239 26.5141C192.773 24.1037 193.51 21.7328 193.459 19.2632C193.332 14.7783 190.128 11.5579 184.483 10.5503C179.143 9.58221 173.752 9.74027 168.411 10.6096C165.385 11.1035 162.791 12.2494 160.808 14.1461C158.901 16.0033 157.782 18.1371 157.222 20.4289C156.129 24.815 155.162 29.201 154.171 33.5871C153.637 35.8987 153.103 38.1905 152.645 40.5021C152.416 41.5888 152.874 41.9444 154.298 41.9444C157.502 41.9444 160.706 41.9444 163.936 41.9444C165.08 41.9444 165.817 41.49 166.021 40.6404C167.165 35.5628 168.31 30.505 169.454 25.4274C169.81 23.8271 170.166 22.2268 170.624 20.6462C170.98 19.4213 171.946 18.5322 173.65 18.4334C175.099 18.3544 176.574 18.3544 178.024 18.4137C179.499 18.4927 180.134 19.1052 180.134 20.2708C180.134 20.5474 180.134 20.824 180.083 21.0809C179.295 24.5581 178.507 28.0156 177.719 31.4929C177.032 34.5355 176.345 37.5583 175.684 40.6009C175.481 41.5295 175.989 41.9444 177.185 41.9444C178.812 41.9444 180.414 41.9444 182.042 41.9444C183.593 41.9444 185.195 41.9444 186.771 41.9444ZM141.761 0.019757C141.202 0.019757 140.668 0.158057 140.261 0.474171C140.032 0.632228 139.879 0.8298 139.803 1.1064C139.447 2.78576 139.015 4.44535 138.684 6.12471C138.506 7.01378 138.989 7.40893 140.159 7.40893C143.719 7.42868 147.279 7.42868 150.839 7.40893C151.958 7.40893 152.62 6.97427 152.823 6.12471C153.204 4.52438 153.56 2.92406 153.942 1.32373V1.30397C154.094 0.612471 153.382 0 152.492 0L141.761 0.019757ZM142.117 41.9444C143.821 41.9444 144.482 41.5295 144.762 40.2453C146.923 30.7619 149.059 21.2784 151.221 11.795C151.424 10.9257 150.89 10.412 149.746 10.3923C146.44 10.3725 143.134 10.3725 139.828 10.3923C138.684 10.3923 137.947 10.9257 137.743 11.795C137.692 12.0519 137.616 12.3285 137.565 12.5853C136.192 18.5915 134.819 24.6174 133.471 30.6236C132.734 33.923 131.971 37.2224 131.259 40.5219C131.055 41.49 131.564 41.9246 132.81 41.9246C134.437 41.9246 136.039 41.9246 137.667 41.9246C139.142 41.9444 140.617 41.9444 142.117 41.9444ZM120.654 0.019757C119.968 0.019757 119.281 0.256843 118.9 0.711257C118.646 1.00761 118.493 1.36324 118.417 1.77814C118.112 3.4575 117.679 5.1171 117.298 6.79645C114.755 18.0185 112.186 29.2406 109.643 40.4824C109.415 41.4505 109.949 41.9444 111.195 41.9444C114.424 41.9444 117.679 41.9444 120.909 41.9444C122.18 41.9444 122.841 41.5295 123.07 40.5614C123.655 38.0918 124.215 35.6221 124.774 33.1525C126.198 26.8697 127.622 20.5869 129.072 14.3042C130.038 10.0366 131.03 5.76908 131.996 1.50154C132.123 0.987857 132.072 0.533443 131.589 0.217328C131.36 0.0790284 131.055 0 130.75 0L120.654 0.019757ZM98.6579 0.019757C98.0984 0.019757 97.5644 0.158057 97.1575 0.474171C96.9287 0.632228 96.7761 0.8298 96.6998 1.1064C96.3438 2.78576 95.9115 4.44535 95.5809 6.12471C95.4029 7.01378 95.886 7.40893 97.0558 7.40893C100.616 7.42868 104.176 7.42868 107.736 7.40893C108.855 7.40893 109.516 6.95451 109.72 6.12471C110.101 4.52438 110.457 2.92406 110.839 1.32373V1.30397C110.991 0.612471 110.279 0 109.389 0L98.6579 0.019757ZM99.0393 41.9444C100.718 41.9444 101.379 41.5097 101.684 40.2255C103.846 30.7421 105.982 21.2587 108.143 11.7753C108.321 10.9455 107.813 10.3923 106.744 10.3923C103.413 10.3725 100.082 10.3725 96.7252 10.3923C95.5809 10.3923 94.8434 10.9257 94.64 11.8148C94.5891 12.0716 94.5128 12.3482 94.462 12.6051C93.0888 18.6112 91.7156 24.6371 90.3424 30.6433C89.6049 33.923 88.8675 37.1829 88.13 40.4626C87.9011 41.5097 88.4097 41.9246 89.7829 41.9246C91.3596 41.9246 92.9616 41.9246 94.5383 41.9246C96.0386 41.9444 97.539 41.9444 99.0393 41.9444ZM76.7121 18.1371C77.0173 18.1371 82.8661 18.1371 85.4345 18.1371C86.6805 18.1371 87.3163 17.7222 87.5451 16.7738C87.8757 15.3711 88.2063 13.9683 88.5115 12.5458C88.9692 10.491 88.842 10.3725 86.1719 10.3725C83.6035 10.3725 81.0351 10.3725 78.3905 10.3725C78.8482 8.41654 79.2805 6.51985 79.7128 4.62317C79.9925 3.39823 79.4077 2.92406 77.8819 3.12163C74.6015 3.55628 71.321 3.99094 68.0406 4.4256C66.5911 4.62317 66.108 5.01831 65.8537 6.12471C65.2434 8.81168 64.6331 11.4987 64.0227 14.2054C62.5478 20.7252 60.9458 27.2451 59.6743 33.7847C58.9114 37.6966 60.7932 40.917 66.5148 41.9444C71.1685 42.794 75.8475 42.3791 80.5011 41.7666C81.4166 41.648 81.8998 41.1541 82.0523 40.4429C82.3575 39.0599 82.6627 37.6769 82.9932 36.2939C83.273 35.0294 82.9169 34.6738 81.2386 34.6738C79.1025 34.654 74.8558 34.654 74.8558 34.654C74.8558 34.654 74.1437 34.7133 73.5843 34.2194C73.2537 33.923 73.4826 33.2908 73.4826 33.2908L76.7121 18.1371ZM47.1629 0.019757C46.6035 0.019757 46.0694 0.158057 45.6626 0.474171C45.4337 0.632228 45.2811 0.8298 45.2048 1.1064C44.8488 2.78576 44.4165 4.44535 44.0859 6.12471C43.9079 7.01378 44.3911 7.40893 45.5608 7.40893C49.121 7.42868 52.6811 7.42868 56.2413 7.40893C57.3602 7.40893 58.0214 6.95451 58.2248 6.12471C58.6062 4.52438 58.9623 2.92406 59.3437 1.32373V1.30397C59.4963 0.612471 58.7842 0 57.8942 0H47.1629V0.019757ZM47.5698 41.9444C49.2481 41.9444 49.9093 41.5097 50.189 40.2058C52.3251 30.7421 54.4866 21.2784 56.6227 11.8345C56.8262 10.9059 56.3176 10.3923 55.1224 10.3923C51.842 10.3923 48.587 10.3923 45.3065 10.3923C44.1114 10.3923 43.3739 10.9059 43.145 11.8345C41.7464 17.9 40.3732 23.9654 39 30.0308C38.2117 33.5279 37.4234 37.0249 36.6605 40.5219C36.4316 41.5295 36.9402 41.9642 38.2371 41.9642C39.8138 41.9642 41.4158 41.9642 42.9925 41.9642C44.5182 41.9444 46.044 41.9444 47.5698 41.9444ZM35.1347 1.7979C30.888 1.02737 26.5649 0.987857 22.2673 1.383C18.6309 1.71887 15.1979 2.52891 12.1463 4.16876C7.84874 6.48034 5.35664 9.76003 3.67828 13.4941C2.22879 16.7145 1.64391 20.093 0.804735 23.432C0.118135 26.1584 -0.288739 28.8849 0.245283 31.6509C0.855594 34.8318 2.61024 37.499 5.89066 39.5143C8.89135 41.3517 12.4006 42.1617 16.1134 42.3593C20.0549 42.5569 23.9711 42.3 27.811 41.5097C29.057 41.2529 29.7436 40.7787 29.9471 39.7316C30.3285 37.7361 30.8625 35.7604 31.3203 33.7649C31.6 32.5202 31.2694 32.2436 29.6673 32.3029C29.4893 32.3029 29.2859 32.3227 29.1079 32.3424C26.0818 32.5993 23.0302 32.7968 19.9787 32.7376C16.4948 32.6981 14.6893 31.2755 14.5367 28.5688C14.4096 26.356 14.9945 24.2025 15.5285 22.049C16.1134 19.6781 16.4948 17.2677 17.6646 15.0154C19.2666 11.9531 21.5299 10.7874 25.7766 10.8072C28.7773 10.8269 31.7271 11.0838 34.7024 11.2616C36.0502 11.3406 36.4316 11.0838 36.6859 10.0169C36.9911 8.73265 37.5505 6.32228 37.8048 5.01831C38.0083 3.8724 38.1863 3.3192 37.8302 2.68697C37.4488 2.11401 36.2027 1.99547 35.1347 1.7979Z" fill="white"/>
</mask>
<g mask="url(#mask0_7_2415)">
<path d="M258.508 -13.3951H-7.73975V48.2076H258.508V-13.3951Z" fill="#0C803D"/>
<path d="M190.23 48.208L228.578 -13.3948H203.275L190.23 48.208Z" fill="#54B149"/>
<path d="M191.755 48.2077L220.237 21.5751L212.735 48.2077H191.755Z" fill="#CDD745"/>
</g>
</svg>
