<svg width="18" height="18" viewBox="0 0 18 18" fill="none" xmlns="http://www.w3.org/2000/svg">
<g clip-path="url(#clip0_7_1078)">
<path fill-rule="evenodd" clip-rule="evenodd" d="M11.25 3.75V8.25H15.75V15.75H2.25V5.25H6.75V3.75L9 1.5L11.25 3.75ZM3.75 14.25H5.25V12.75H3.75V14.25ZM5.25 11.25H3.75V9.75H5.25V11.25ZM3.75 8.25H5.25V6.75H3.75V8.25ZM8.25 14.25V12.75H9.75V14.25H8.25ZM8.25 9.75V11.25H9.75V9.75H8.25ZM8.25 8.25V6.75H9.75V8.25H8.25ZM8.25 3.75V5.25H9.75V3.75H8.25ZM14.25 14.25H12.75V12.75H14.25V14.25ZM12.75 11.25H14.25V9.75H12.75V11.25Z" fill="#BEBEBE"/>
</g>
<defs>
<clipPath id="clip0_7_1078">
<rect width="18" height="18" fill="white"/>
</clipPath>
</defs>
</svg>
