<svg width="33" height="33" viewBox="0 0 33 33" fill="none" xmlns="http://www.w3.org/2000/svg">
<circle cx="16.5" cy="16.5" r="16.5" fill="#09E5C2"/>
<path fill-rule="evenodd" clip-rule="evenodd" d="M10.5639 16.1974C10.5639 15.8087 10.2484 15.4932 9.85963 15.4932C9.42918 15.4932 8.88154 15.4932 8.45109 15.4932C8.06234 15.4932 7.74683 15.8087 7.74683 16.1974C7.74683 17.2799 7.74683 19.3406 7.74683 20.423C7.74683 20.8118 8.06234 21.1273 8.45109 21.1273C8.88154 21.1273 9.42918 21.1273 9.85963 21.1273C10.2484 21.1273 10.5639 20.8118 10.5639 20.423C10.5639 19.3406 10.5639 17.2799 10.5639 16.1974Z" fill="#09E5C2"/>
<path fill-rule="evenodd" clip-rule="evenodd" d="M26.0578 16.1974C26.0578 15.8087 25.7423 15.4932 25.3535 15.4932C24.9231 15.4932 24.3754 15.4932 23.945 15.4932C23.5562 15.4932 23.2407 15.8087 23.2407 16.1974C23.2407 17.2799 23.2407 19.3406 23.2407 20.423C23.2407 20.8118 23.5562 21.1273 23.945 21.1273C24.3754 21.1273 24.9231 21.1273 25.3535 21.1273C25.7423 21.1273 26.0578 20.8118 26.0578 20.423C26.0578 19.3406 26.0578 17.2799 26.0578 16.1974Z" fill="#09E5C2"/>
<path fill-rule="evenodd" clip-rule="evenodd" d="M19.0152 23.9449C19.0152 23.1666 18.3847 22.5361 17.6063 22.5361H16.1984C15.42 22.5361 14.7896 23.1666 14.7896 23.9449V25.3529C14.7896 26.1313 15.42 26.7617 16.1984 26.7617H17.6063C18.3847 26.7617 19.0152 26.1313 19.0152 25.3529V23.9449Z" fill="#09E5C2"/>
<path fill-rule="evenodd" clip-rule="evenodd" d="M8.47989 14.7889H8.45102C7.6728 14.7889 7.04248 15.4193 7.04248 16.1975V20.4231C7.04248 21.2013 7.6728 21.8316 8.45102 21.8316H9.85955C10.6378 21.8316 11.2681 21.2013 11.2681 20.4231V16.1975C11.2681 15.4312 10.6561 14.808 9.89406 14.7897C10.2476 11.2324 13.2527 8.45053 16.9022 8.45053C20.5518 8.45053 23.5569 11.2324 23.9104 14.7897C23.1484 14.808 22.5364 15.4312 22.5364 16.1975V20.4231C22.5364 21.1929 23.1533 21.8182 23.9203 21.8316C23.9005 21.969 23.8696 22.1028 23.828 22.2316C23.5097 23.2247 22.5779 23.9444 21.48 23.9444H19.7193C19.7193 22.7775 18.7735 21.8316 17.6065 21.8316H16.198C15.031 21.8316 14.0852 22.7775 14.0852 23.9444C14.0852 24.1761 14.0852 24.417 14.0852 24.6487C14.0852 25.8157 15.031 26.7615 16.198 26.7615H17.6065C18.5298 26.7615 19.3151 26.1692 19.6024 25.3431C19.6404 25.3494 19.6792 25.353 19.7193 25.353H21.48C23.2054 25.353 24.6689 24.2219 25.1689 22.6619C25.2542 22.3964 25.3119 22.1183 25.3373 21.8316H25.3535C26.1317 21.8316 26.762 21.2013 26.762 20.4231V16.1975C26.762 15.4193 26.1317 14.7889 25.3535 14.7889H25.3246C24.9696 10.4894 21.3891 7.09834 17.0114 7.0427L16.9022 7.04199C12.4745 7.04199 8.83836 10.4542 8.47989 14.7889ZM18.3108 23.9444V24.6487C18.3108 25.0375 17.9953 25.353 17.6065 25.353H16.198C15.8092 25.353 15.4937 25.0375 15.4937 24.6487V23.9444C15.4937 23.5557 15.8092 23.2402 16.198 23.2402H17.6065C17.9953 23.2402 18.3108 23.5557 18.3108 23.9444ZM9.85955 16.1975H8.45102V20.4231H9.85955V16.1975ZM25.3535 16.1975H23.9449V20.4231H25.3535V16.1975Z" fill="#070606"/>
</svg>
