<svg width="149" height="103" viewBox="0 0 149 103" fill="none" xmlns="http://www.w3.org/2000/svg">
<path d="M83.6099 6.06004C82.3982 7.63116 81.725 9.56138 81.725 11.5365C81.725 12.2098 81.725 28.1454 81.725 28.729C81.6352 30.0308 81.1416 31.2428 80.3337 32.2752C79.885 32.7241 77.2371 35.1032 77.0127 35.3725L78.4937 35.4174C78.9874 34.9685 84.1036 30.4348 84.5973 29.8063C86.0783 28.1903 86.931 26.0805 86.931 23.881C86.931 23.1627 86.931 8.03516 86.931 7.36182C86.8861 5.70093 87.5144 4.04004 88.6813 2.82804C89.3096 2.1547 91.2843 0.493813 91.6433 0.0898119L90.0725 0.0449219C89.7584 0.448923 84.1485 5.52138 83.6099 6.06004Z" fill="white"/>
<path d="M70.9985 68.5905L77.2367 74.022H81.4105C85.4047 74.022 89.2643 72.4509 92.0917 69.6229C94.6498 67.0642 95.5923 63.6078 95.5923 60.3758V51.4429C95.5474 49.4229 94.6947 47.4926 93.1688 46.146C92.8995 45.8766 91.0595 44.126 91.0595 44.126V50.994C91.0595 50.994 93.0791 53.0589 93.4381 53.4629C95.2781 55.438 95.2781 59.0291 89.399 64.73C88.3668 65.7176 85.4496 68.5007 81.4105 68.5007L70.9985 68.5905Z" fill="white"/>
<path d="M88.367 31.916C87.6938 32.6342 87.0206 34.4297 87.0206 36.0457V39.4124H90.4314C91.7778 39.4124 93.5281 38.2004 93.8871 37.572C93.8871 37.5271 93.8871 34.2053 93.8871 34.2053C94.3808 34.9235 95.0091 35.5969 95.7271 36.1355C96.0862 35.6866 99.2277 31.916 101.831 31.8711C106.184 31.8262 105.197 37.3475 103.446 39.0982C102.863 39.6818 100.305 42.016 99.497 42.7791C97.4326 44.7542 93.8871 43.8115 93.8871 38.7391C93.8871 38.7391 90.1173 42.3302 89.5338 42.824C88.9504 43.3178 87.0206 45.3827 87.0206 45.3827V54.3156C87.0206 58.58 85.6293 60.0165 84.4625 61.3182C84.0137 61.812 79.2116 66.2111 78.5384 66.7049L76.9677 66.7498C76.9677 66.7498 79.7951 64.1911 80.3336 63.6076C80.9619 62.9342 81.7249 61.5876 81.7249 59.3431C81.7249 58.7596 81.6351 45.3378 81.6351 45.3378H59.7341C52.1046 45.3378 50.489 36.8986 50.4441 34.6093C50.4441 33.936 50.4441 27.2026 50.4441 26.1253C50.4441 24.7337 49.5465 22.3995 48.1553 21.6813H50.3095C50.5787 21.7711 51.9251 22.3097 51.9251 27.5168C51.9251 27.5168 51.8354 33.532 51.8354 33.8911C51.8354 36.5395 53.9447 39.5471 56.9516 39.5471L81.7249 39.5022C81.7249 38.8289 82.398 36.3151 83.6098 34.9684C84.283 34.2053 89.6236 29.3573 90.207 28.8635H91.7778C91.5534 29.088 88.9504 31.3773 88.4118 32.0057L88.367 31.916ZM96.4901 36.9884C97.1184 37.8413 97.8365 38.6942 98.5994 39.4573C101.292 41.612 102.549 39.2778 100.754 36.8537C100.036 35.8662 97.2979 36.1355 96.4901 36.9884Z" fill="white"/>
<path d="M69.922 52.969C69.922 54.181 66.1072 57.3681 65.8828 57.5477C65.6136 56.2459 64.6262 54.8543 61.7988 51.9814L65.9726 47.8068C68.8 50.6348 69.922 51.2632 69.922 52.969Z" fill="white"/>
<path d="M77.1921 4.98268C78.0448 5.83557 79.84 8.08001 78.7629 9.20224C77.8204 10.1449 76.3394 11.6711 76.3394 11.6711C76.2496 11.1325 74.8584 9.7858 74.8584 9.7858C74.8584 9.7858 74.8584 13.8258 74.8584 14.3196C74.8135 16.16 74.1403 16.6538 74.1403 16.6538C74.1403 16.6538 77.5062 19.9756 77.5062 24.2849C77.5062 26.3498 77.5062 28.2801 77.5062 28.6841C77.5511 29.4921 77.237 30.3449 76.6535 30.9285C76.3394 31.2876 73.2427 34.4298 72.7491 34.8338C72.031 35.4623 71.1334 35.8214 70.1909 35.7765H58.5673C56.7272 35.7765 54.8423 34.3401 54.8423 32.9036C54.8423 32.5445 54.8872 28.5943 54.8872 28.5943C55.4706 29.2676 56.0989 30.0756 57.535 30.0756C58.7019 30.0756 59.8688 29.1778 60.1829 28.8187C60.4971 28.4596 68.9792 19.6614 68.9792 19.6614C68.9792 19.6614 65.0298 15.9805 62.4269 14.2298C61.1702 13.3769 59.4648 14.4542 59.1956 15.5765C58.3877 19.0778 59.1956 24.3747 59.1956 24.3747L56.0091 21.1876C54.7077 19.8858 54.7525 16.968 56.3233 15.4418C56.5477 15.1725 58.9263 12.5689 61.8883 12.5689H66.5109C69.6075 12.5689 73.0183 15.6663 73.0183 15.6663C73.2876 15.352 73.4671 14.9929 73.512 14.5889C73.512 12.9729 73.4671 8.70846 73.4671 8.70846C71.1334 6.37423 70.8193 3.95023 71.9412 2.82801C74.0505 0.718223 74.8135 0 74.8135 0C74.8135 0 74.7237 2.55867 77.1921 4.98268ZM62.6064 28.3249C61.4395 29.5369 61.26 29.8063 60.1829 30.4796H73.2876C76.8331 30.4796 76.115 28.2801 75.4867 27.1578C74.1852 24.8685 70.0563 20.6489 70.0563 20.6489C70.0563 20.6489 62.8308 28.1005 62.6064 28.3249Z" fill="white"/>
<path d="M47.6615 40.2654H45.5073C45.5073 40.2654 47.7962 41.5223 47.7962 44.7992V55.2583C47.7962 62.0365 53.4061 68.321 60.2277 68.321H65.9273C69.3381 68.321 70.5499 67.513 72.6143 65.6725C73.3773 64.9992 74.3646 63.877 74.7236 63.473C75.8905 62.1263 77.192 61.049 77.192 57.5476V54.1361C77.192 51.1734 75.4866 49.9614 74.6339 49.1085C74.0953 48.5698 72.6592 47.1783 72.6592 47.1783V54.181C72.6592 54.181 74.0953 55.7072 74.7236 56.201C77.6857 58.5352 75.3519 62.5752 72.5694 62.5752C72.0309 62.5752 60.856 62.5752 60.0482 62.5752C55.4705 62.665 49.2323 58.5801 49.2323 51.6672V46.0112C49.2772 40.2654 47.6615 40.2654 47.6615 40.2654Z" fill="white"/>
<path d="M61.3946 53.0138C61.3946 54.2258 57.5799 57.4129 57.3555 57.5925C57.0862 56.2907 56.0989 54.8991 53.2715 52.0262L57.4452 47.8516C60.2277 50.6347 61.3946 51.2631 61.3946 53.0138Z" fill="white"/>
<path d="M17.6375 99.474H10.9056C8.79631 99.474 8.97582 97.7234 8.75143 96.242V86.6358C8.75143 86.6358 10.2324 86.5909 11.893 86.5909C13.733 86.5909 16.0667 86.3216 18.3107 87.5784C17.1438 85.1095 14.6306 83.5833 11.893 83.6731H8.79631V80.5758C8.79631 80.5758 8.79631 77.8824 8.12312 77.1193H12.5662C16.3809 77.1193 19.3429 77.0744 22.4396 79.0944C22.4396 79.0944 21.8561 74.022 14.4511 74.022H0C0 74.022 2.51323 76.1766 2.42347 80.5309L2.51323 98.0376C2.51323 102.437 4.26352 102.571 4.26352 102.571H18.4902C21.7215 102.571 22.8435 100.282 22.8435 99.0251L22.8883 97.3642C22.8883 97.3642 21.8561 99.474 17.6375 99.474Z" fill="white"/>
<path d="M55.5151 97.9927V85.738C55.5151 80.9798 51.6555 79.7229 48.7384 79.7229C44.9237 79.7229 43.7568 82.91 43.2631 84.0322C42.4104 81.0696 39.4035 79.7229 36.9801 79.7229C32.3575 79.7229 31.1907 84.122 31.1907 84.122C31.1907 84.122 31.1009 79.8576 27.3759 79.8576H23.7407C23.7407 79.8576 25.85 80.7105 25.85 84.3914V97.9927C25.85 102.482 27.6452 102.571 27.6452 102.571H33.659C32.2229 101.494 31.3702 99.7883 31.3702 97.9478V85.8727C31.4599 85.334 32.3575 83.5385 34.9156 83.5385C36.3966 83.5385 38.0123 85.0647 37.9674 86.7705V97.9927C37.9674 102.526 39.7626 102.571 39.7626 102.571H45.7764C44.3402 101.449 43.4875 99.7883 43.4875 97.9478V85.8727C44.071 84.122 45.9559 83.1345 47.751 83.718C49.0974 84.1669 50.0399 85.3789 50.0848 86.8154C50.0848 86.8154 50.0848 97.05 50.0848 97.9927C50.1296 102.571 51.8799 102.526 51.8799 102.526C55.0215 102.526 57.8937 102.526 57.8937 102.526C56.4127 101.449 55.56 99.7883 55.5151 97.9927Z" fill="white"/>
<path d="M66.0171 97.9927C66.0171 99.7882 66.8698 101.494 68.306 102.571C68.306 102.571 65.4337 102.571 62.2922 102.571C62.2922 102.571 60.4521 102.616 60.4521 98.0375V84.3464C60.4521 80.7553 58.3877 79.8126 58.3877 79.8126H62.0229C63.3244 79.8126 65.9723 79.8126 65.9723 84.8851V97.9029L66.0171 97.9927Z" fill="white"/>
<path d="M84.5074 81.5632C84.5074 81.5632 83.924 79.9472 81.4557 79.9472C77.6858 79.9472 76.7882 84.4361 76.7882 84.4361C76.4741 80.8899 75.5316 79.8574 72.8837 79.8574H69.2485C69.2485 79.8574 71.3579 80.7103 71.3579 84.3912V97.9926C71.3579 102.481 73.153 102.571 73.153 102.571H79.1668C77.7307 101.494 76.878 99.7881 76.878 97.9926V86.8152C77.0126 85.8725 77.5512 85.0197 78.359 84.5259C80.3786 83.1792 83.0264 83.5832 84.5972 85.4237L84.5074 81.5632Z" fill="white"/>
<path d="M112.467 82.3713C113.724 82.3713 114.936 82.6855 116.013 83.2691V79.8575H110.986V74.6504C109.909 76.3562 108.518 77.8824 106.947 79.1842C105.242 80.5757 101.651 82.3264 101.651 82.3264L105.466 82.3713V98.1722C105.466 102.571 107.306 102.571 107.306 102.571C110.582 102.571 113.275 102.571 113.275 102.571C111.839 101.539 110.986 99.878 110.941 98.1273V82.3713C112.557 82.3713 111.48 82.3713 112.467 82.3713Z" fill="white"/>
<path d="M130.688 89.2393C127.322 92.7406 124.674 92.2019 122.565 94.8055C122.565 94.8055 122.924 98.3068 125.572 99.5188C126.469 99.9228 130.194 101.27 132.573 97.1397V100.821C132.573 100.821 131.047 102.616 126.155 102.616C120.276 102.616 116.237 97.9926 116.237 91.7082C116.237 85.5135 119.513 79.8126 125.751 79.7677C131.81 79.6779 135.131 84.6157 130.688 89.2393ZM127.008 87.8028C127.995 85.9624 128.803 81.2939 125.392 81.5632C121.443 81.8775 122.206 92.3366 122.206 92.3366C123.507 90.9001 125.482 90.5859 127.008 87.8028Z" fill="white"/>
<path d="M63.2347 78.017C64.7605 77.9721 65.9274 76.7152 65.9274 75.2339C65.8825 73.7076 64.6259 72.5405 63.1449 72.5405C61.6639 72.5854 60.4521 73.7974 60.4521 75.2788C60.4521 76.805 61.7088 78.017 63.2347 78.017Z" fill="white"/>
<path d="M90.7456 99.9677C89.3992 99.9677 88.4119 98.5313 88.4119 97.0948C88.4119 91.4388 93.0344 90.6308 94.291 89.1495V98.7108C93.7076 99.1597 93.169 99.9677 90.7456 99.9677ZM94.291 86.9499C92.8998 89.3739 82.039 89.9126 83.6996 98.3069C84.3727 101.629 86.5718 102.616 89.3543 102.616C92.0471 102.616 93.7076 101.225 94.3808 99.878C94.7847 102.392 96.0862 102.571 96.0862 102.571C99.2277 102.571 102.1 102.571 102.1 102.571C100.664 101.494 99.7663 99.8331 99.7663 98.0375V85.2442C99.7663 82.1917 96.4003 79.8126 92.81 79.8126C90.7905 79.7677 88.8607 80.3513 87.2001 81.4735V85.4237C87.2001 85.4237 88.4567 82.2815 91.5534 82.2815C94.6052 82.2815 94.8296 83.8077 94.8296 84.5708C94.8745 85.3788 94.7398 86.2317 94.291 86.9499Z" fill="white"/>
<path d="M143.972 96.3767C144.017 97.9927 142.581 100.102 139.529 100.102C136.387 100.102 135.131 96.9154 135.131 96.9154V100.955C136.836 102.033 138.811 102.571 140.83 102.571C144.914 102.571 149.088 99.474 148.998 95.1198C148.953 93.6834 148.46 92.2918 147.607 91.1696C146.216 89.3291 143.703 88.0274 141.728 86.8154C140.606 86.142 140.023 84.8851 140.023 84.4811C139.978 83.718 140.382 82.1918 143.388 82.1918C146.35 82.1918 147.652 85.334 147.652 85.334V81.5185C145.991 80.3513 143.972 79.7229 141.907 79.7229C138.317 79.7229 135.041 82.102 135.131 85.1545C135.176 87.8478 136.298 89.5536 138.497 91.2145C139.484 91.9327 140.516 92.5611 141.593 93.1447C143.299 94.0874 143.927 95.2545 143.972 96.3767Z" fill="white"/>
</svg>
