<svg width="36" height="24" viewBox="0 0 36 24" fill="none" xmlns="http://www.w3.org/2000/svg">
<path d="M19.1 22V21C19.1 19 17.2715 18 14.5 18C11.625 18 9.9 19 9.9 21V22H3V13.02C3 11.07 7.2205 10 9.325 10C10.7395 10 13.097 10.48 14.5 11.39C16.0445 10.5203 17.8355 10.0392 19.675 10C21.7795 10 26 11.07 26 13.02V22H19.1ZM8.75 8C6.8755 8 5.3 6.63 5.3 5C5.3 3.37 6.8755 2 8.75 2C10.6245 2 12.2 3.37 12.2 5C12.2 6.63 10.6245 8 8.75 8ZM20.25 8C18.3755 8 16.8 6.63 16.8 5C16.8 3.37 18.3755 2 20.25 2C22.1245 2 23.7 3.37 23.7 5C23.7 6.63 22.1245 8 20.25 8ZM14.5 17C15.7535 17 16.8 16.09 16.8 15C16.8 13.91 15.7535 13 14.5 13C13.2465 13 12.2 13.91 12.2 15C12.2 16.09 13.2465 17 14.5 17Z" fill="white"/>
</svg>
