<svg width="337" height="25" viewBox="0 0 337 25" fill="none" xmlns="http://www.w3.org/2000/svg">
<circle cx="10.1453" cy="14.8552" r="8.89529" stroke="white" stroke-width="2.5"/>
<path d="M10.8511 20.0653C9.77113 20.0653 8.80447 19.832 7.95113 19.3653C7.11113 18.8986 6.45113 18.2586 5.97113 17.4453C5.49113 16.632 5.25113 15.6986 5.25113 14.6453C5.25113 13.592 5.49113 12.6586 5.97113 11.8453C6.45113 11.032 7.11113 10.3986 7.95113 9.94531C8.80447 9.47865 9.77113 9.24531 10.8511 9.24531C11.8111 9.24531 12.6645 9.43865 13.4111 9.82531C14.1711 10.1986 14.7578 10.7586 15.1711 11.5053L13.7111 12.4453C13.3645 11.9253 12.9378 11.5453 12.4311 11.3053C11.9378 11.052 11.4045 10.9253 10.8311 10.9253C10.1378 10.9253 9.5178 11.0786 8.97113 11.3853C8.42447 11.692 7.99113 12.1253 7.67113 12.6853C7.35113 13.232 7.19113 13.8853 7.19113 14.6453C7.19113 15.4053 7.35113 16.0653 7.67113 16.6253C7.99113 17.1853 8.42447 17.6186 8.97113 17.9253C9.5178 18.232 10.1378 18.3853 10.8311 18.3853C11.4045 18.3853 11.9378 18.2653 12.4311 18.0253C12.9378 17.772 13.3645 17.3853 13.7111 16.8653L15.1711 17.7853C14.7578 18.5186 14.1711 19.0853 13.4111 19.4853C12.6645 19.872 11.8111 20.0653 10.8511 20.0653Z" fill="white"/>
<path d="M25.1917 19.5918V18.3738L29.0837 14.6778C29.4103 14.3698 29.653 14.0991 29.8117 13.8658C29.9703 13.6325 30.073 13.4178 30.1197 13.2218C30.1757 13.0165 30.2037 12.8251 30.2037 12.6478C30.2037 12.1998 30.0497 11.8545 29.7417 11.6118C29.4337 11.3598 28.981 11.2338 28.3837 11.2338C27.9077 11.2338 27.4737 11.3178 27.0817 11.4858C26.699 11.6538 26.3677 11.9105 26.0877 12.2558L24.8137 11.2758C25.1963 10.7625 25.7097 10.3658 26.3537 10.0858C27.007 9.79646 27.735 9.6518 28.5377 9.6518C29.247 9.6518 29.863 9.76846 30.3857 10.0018C30.9177 10.2258 31.3237 10.5478 31.6037 10.9678C31.893 11.3878 32.0377 11.8871 32.0377 12.4658C32.0377 12.7831 31.9957 13.1005 31.9117 13.4178C31.8277 13.7258 31.669 14.0525 31.4357 14.3978C31.2023 14.7431 30.8617 15.1305 30.4137 15.5598L27.0677 18.7378L26.6897 18.0518H32.4157V19.5918H25.1917ZM37.5541 19.7318C36.7794 19.7318 36.0794 19.5358 35.4541 19.1438C34.8381 18.7518 34.3528 18.1825 33.9981 17.4358C33.6434 16.6798 33.4661 15.7651 33.4661 14.6918C33.4661 13.6185 33.6434 12.7085 33.9981 11.9618C34.3528 11.2058 34.8381 10.6318 35.4541 10.2398C36.0794 9.8478 36.7794 9.6518 37.5541 9.6518C38.3381 9.6518 39.0381 9.8478 39.6541 10.2398C40.2701 10.6318 40.7554 11.2058 41.1101 11.9618C41.4741 12.7085 41.6561 13.6185 41.6561 14.6918C41.6561 15.7651 41.4741 16.6798 41.1101 17.4358C40.7554 18.1825 40.2701 18.7518 39.6541 19.1438C39.0381 19.5358 38.3381 19.7318 37.5541 19.7318ZM37.5541 18.1498C38.0114 18.1498 38.4081 18.0285 38.7441 17.7858C39.0801 17.5338 39.3414 17.1511 39.5281 16.6378C39.7241 16.1245 39.8221 15.4758 39.8221 14.6918C39.8221 13.8985 39.7241 13.2498 39.5281 12.7458C39.3414 12.2325 39.0801 11.8545 38.7441 11.6118C38.4081 11.3598 38.0114 11.2338 37.5541 11.2338C37.1154 11.2338 36.7234 11.3598 36.3781 11.6118C36.0421 11.8545 35.7761 12.2325 35.5801 12.7458C35.3934 13.2498 35.3001 13.8985 35.3001 14.6918C35.3001 15.4758 35.3934 16.1245 35.5801 16.6378C35.7761 17.1511 36.0421 17.5338 36.3781 17.7858C36.7234 18.0285 37.1154 18.1498 37.5541 18.1498ZM42.7463 19.5918V18.3738L46.6383 14.6778C46.965 14.3698 47.2077 14.0991 47.3663 13.8658C47.525 13.6325 47.6277 13.4178 47.6743 13.2218C47.7303 13.0165 47.7583 12.8251 47.7583 12.6478C47.7583 12.1998 47.6043 11.8545 47.2963 11.6118C46.9883 11.3598 46.5357 11.2338 45.9383 11.2338C45.4623 11.2338 45.0283 11.3178 44.6363 11.4858C44.2537 11.6538 43.9223 11.9105 43.6423 12.2558L42.3683 11.2758C42.751 10.7625 43.2643 10.3658 43.9083 10.0858C44.5617 9.79646 45.2897 9.6518 46.0923 9.6518C46.8017 9.6518 47.4177 9.76846 47.9403 10.0018C48.4723 10.2258 48.8783 10.5478 49.1583 10.9678C49.4477 11.3878 49.5923 11.8871 49.5923 12.4658C49.5923 12.7831 49.5503 13.1005 49.4663 13.4178C49.3823 13.7258 49.2237 14.0525 48.9903 14.3978C48.757 14.7431 48.4163 15.1305 47.9683 15.5598L44.6223 18.7378L44.2443 18.0518H49.9703V19.5918H42.7463ZM50.6757 17.3658V16.1058L55.5057 9.7918H57.4517L52.6917 16.1058L51.7817 15.8258H59.5517V17.3658H50.6757ZM56.0517 19.5918V17.3658L56.1077 15.8258V13.8518H57.8157V19.5918H56.0517ZM64.8868 19.5918V9.7918H66.3848L70.6688 16.9458H69.8848L74.0988 9.7918H75.5968L75.6108 19.5918H73.8888L73.8748 12.4938H74.2388L70.6548 18.4718H69.8428L66.2028 12.4938H66.6228V19.5918H64.8868ZM76.8719 19.5918L81.2819 9.7918H83.0739L87.4979 19.5918H85.5939L81.7999 10.7578H82.5279L78.7479 19.5918H76.8719ZM78.9019 17.3238L79.3919 15.8958H84.6839L85.1739 17.3238H78.9019ZM93.1435 19.7318C92.3968 19.7318 91.7015 19.6105 91.0575 19.3678C90.4228 19.1158 89.8675 18.7658 89.3915 18.3178C88.9248 17.8605 88.5608 17.3238 88.2995 16.7078C88.0382 16.0918 87.9075 15.4198 87.9075 14.6918C87.9075 13.9638 88.0382 13.2918 88.2995 12.6758C88.5608 12.0598 88.9295 11.5278 89.4055 11.0798C89.8815 10.6225 90.4368 10.2725 91.0715 10.0298C91.7062 9.7778 92.4015 9.6518 93.1575 9.6518C93.9602 9.6518 94.6928 9.7918 95.3555 10.0718C96.0182 10.3425 96.5782 10.7485 97.0355 11.2898L95.8595 12.3958C95.5048 12.0131 95.1082 11.7285 94.6695 11.5418C94.2308 11.3458 93.7548 11.2478 93.2415 11.2478C92.7282 11.2478 92.2568 11.3318 91.8275 11.4998C91.4075 11.6678 91.0388 11.9058 90.7215 12.2138C90.4135 12.5218 90.1708 12.8858 89.9935 13.3058C89.8255 13.7258 89.7415 14.1878 89.7415 14.6918C89.7415 15.1958 89.8255 15.6578 89.9935 16.0778C90.1708 16.4978 90.4135 16.8618 90.7215 17.1698C91.0388 17.4778 91.4075 17.7158 91.8275 17.8838C92.2568 18.0518 92.7282 18.1358 93.2415 18.1358C93.7548 18.1358 94.2308 18.0425 94.6695 17.8558C95.1082 17.6598 95.5048 17.3658 95.8595 16.9738L97.0355 18.0938C96.5782 18.6258 96.0182 19.0318 95.3555 19.3118C94.6928 19.5918 93.9555 19.7318 93.1435 19.7318ZM100.459 13.8658H105.331V15.3638H100.459V13.8658ZM100.599 18.0658H106.129V19.5918H98.7794V9.7918H105.933V11.3178H100.599V18.0658ZM108.158 19.5918V9.7918H112.19C113.058 9.7918 113.8 9.9318 114.416 10.2118C115.042 10.4918 115.522 10.8931 115.858 11.4158C116.194 11.9385 116.362 12.5591 116.362 13.2778C116.362 13.9965 116.194 14.6171 115.858 15.1398C115.522 15.6531 115.042 16.0498 114.416 16.3298C113.8 16.6005 113.058 16.7358 112.19 16.7358H109.166L109.978 15.9098V19.5918H108.158ZM114.57 19.5918L112.092 16.0358H114.038L116.53 19.5918H114.57ZM109.978 16.1058L109.166 15.2378H112.106C112.909 15.2378 113.511 15.0651 113.912 14.7198C114.323 14.3745 114.528 13.8938 114.528 13.2778C114.528 12.6525 114.323 12.1718 113.912 11.8358C113.511 11.4998 112.909 11.3318 112.106 11.3318H109.166L109.978 10.4358V16.1058ZM117.013 19.5918L121.423 9.7918H123.215L127.639 19.5918H125.735L121.941 10.7578H122.669L118.889 19.5918H117.013ZM119.043 17.3238L119.533 15.8958H124.825L125.315 17.3238H119.043ZM132.754 19.5918V9.7918H134.574V18.0518H139.698V19.5918H132.754ZM142.207 19.5918V11.3318H138.959V9.7918H147.275V11.3318H144.027V19.5918H142.207ZM148.641 19.5918V9.7918H152.925C153.989 9.7918 154.922 9.99713 155.725 10.4078C156.527 10.8185 157.153 11.3878 157.601 12.1158C158.049 12.8438 158.273 13.7025 158.273 14.6918C158.273 15.6718 158.049 16.5305 157.601 17.2678C157.153 17.9958 156.527 18.5651 155.725 18.9758C154.922 19.3865 153.989 19.5918 152.925 19.5918H148.641ZM150.461 18.0518H152.841C153.578 18.0518 154.213 17.9118 154.745 17.6318C155.286 17.3518 155.701 16.9598 155.991 16.4558C156.289 15.9518 156.439 15.3638 156.439 14.6918C156.439 14.0105 156.289 13.4225 155.991 12.9278C155.701 12.4238 155.286 12.0318 154.745 11.7518C154.213 11.4718 153.578 11.3318 152.841 11.3318H150.461V18.0518ZM160.326 19.6898C160.008 19.6898 159.738 19.5825 159.514 19.3678C159.29 19.1438 159.178 18.8638 159.178 18.5278C159.178 18.1731 159.29 17.8931 159.514 17.6878C159.738 17.4731 160.008 17.3658 160.326 17.3658C160.643 17.3658 160.914 17.4731 161.138 17.6878C161.362 17.8931 161.474 18.1731 161.474 18.5278C161.474 18.8638 161.362 19.1438 161.138 19.3678C160.914 19.5825 160.643 19.6898 160.326 19.6898ZM165.835 19.5918L170.245 9.7918H172.037L176.461 19.5918H174.557L170.763 10.7578H171.491L167.711 19.5918H165.835ZM167.865 17.3238L168.355 15.8958H173.647L174.137 17.3238H167.865ZM177.707 19.5918V9.7918H179.527V18.0518H184.651V19.5918H177.707ZM186.088 19.5918V9.7918H187.908V18.0518H193.032V19.5918H186.088ZM198.338 19.5918V9.7918H202.37C203.238 9.7918 203.98 9.9318 204.596 10.2118C205.221 10.4918 205.702 10.8931 206.038 11.4158C206.374 11.9385 206.542 12.5591 206.542 13.2778C206.542 13.9965 206.374 14.6171 206.038 15.1398C205.702 15.6531 205.221 16.0498 204.596 16.3298C203.98 16.6005 203.238 16.7358 202.37 16.7358H199.346L200.158 15.9098V19.5918H198.338ZM204.75 19.5918L202.272 16.0358H204.218L206.71 19.5918H204.75ZM200.158 16.1058L199.346 15.2378H202.286C203.089 15.2378 203.691 15.0651 204.092 14.7198C204.503 14.3745 204.708 13.8938 204.708 13.2778C204.708 12.6525 204.503 12.1718 204.092 11.8358C203.691 11.4998 203.089 11.3318 202.286 11.3318H199.346L200.158 10.4358V16.1058ZM208.578 19.5918V9.7918H210.398V19.5918H208.578ZM217.627 19.7318C216.862 19.7318 216.157 19.6105 215.513 19.3678C214.878 19.1158 214.323 18.7658 213.847 18.3178C213.371 17.8605 213.002 17.3238 212.741 16.7078C212.48 16.0918 212.349 15.4198 212.349 14.6918C212.349 13.9638 212.48 13.2918 212.741 12.6758C213.002 12.0598 213.371 11.5278 213.847 11.0798C214.332 10.6225 214.897 10.2725 215.541 10.0298C216.185 9.7778 216.89 9.6518 217.655 9.6518C218.486 9.6518 219.232 9.78713 219.895 10.0578C220.567 10.3285 221.132 10.7251 221.589 11.2478L220.441 12.3678C220.058 11.9851 219.643 11.7051 219.195 11.5278C218.756 11.3411 218.271 11.2478 217.739 11.2478C217.226 11.2478 216.75 11.3318 216.311 11.4998C215.872 11.6678 215.494 11.9058 215.177 12.2138C214.86 12.5218 214.612 12.8858 214.435 13.3058C214.267 13.7258 214.183 14.1878 214.183 14.6918C214.183 15.1865 214.267 15.6438 214.435 16.0638C214.612 16.4838 214.86 16.8525 215.177 17.1698C215.494 17.4778 215.868 17.7158 216.297 17.8838C216.726 18.0518 217.202 18.1358 217.725 18.1358C218.21 18.1358 218.677 18.0611 219.125 17.9118C219.582 17.7531 220.016 17.4918 220.427 17.1278L221.463 18.4858C220.95 18.8965 220.352 19.2091 219.671 19.4238C218.999 19.6291 218.318 19.7318 217.627 19.7318ZM219.741 18.2478V14.5798H221.463V18.4858L219.741 18.2478ZM230.751 9.7918H232.571V19.5918H230.751V9.7918ZM225.683 19.5918H223.863V9.7918H225.683V19.5918ZM230.891 15.3918H225.529V13.8378H230.891V15.3918ZM237.185 19.5918V11.3318H233.937V9.7918H242.253V11.3318H239.005V19.5918H237.185ZM246.562 19.7318C245.796 19.7318 245.064 19.6245 244.364 19.4098C243.664 19.1858 243.108 18.9011 242.698 18.5558L243.328 17.1418C243.72 17.4498 244.205 17.7065 244.784 17.9118C245.362 18.1171 245.955 18.2198 246.562 18.2198C247.075 18.2198 247.49 18.1638 247.808 18.0518C248.125 17.9398 248.358 17.7905 248.508 17.6038C248.657 17.4078 248.732 17.1885 248.732 16.9458C248.732 16.6471 248.624 16.4091 248.41 16.2318C248.195 16.0451 247.915 15.9005 247.57 15.7978C247.234 15.6858 246.856 15.5831 246.436 15.4898C246.025 15.3965 245.61 15.2891 245.19 15.1678C244.779 15.0371 244.401 14.8738 244.056 14.6778C243.72 14.4725 243.444 14.2018 243.23 13.8658C243.015 13.5298 242.908 13.1005 242.908 12.5778C242.908 12.0458 243.048 11.5605 243.328 11.1218C243.617 10.6738 244.051 10.3191 244.63 10.0578C245.218 9.78713 245.96 9.6518 246.856 9.6518C247.444 9.6518 248.027 9.72646 248.606 9.8758C249.184 10.0251 249.688 10.2398 250.118 10.5198L249.544 11.9338C249.105 11.6725 248.652 11.4811 248.186 11.3598C247.719 11.2291 247.271 11.1638 246.842 11.1638C246.338 11.1638 245.927 11.2245 245.61 11.3458C245.302 11.4671 245.073 11.6258 244.924 11.8218C244.784 12.0178 244.714 12.2418 244.714 12.4938C244.714 12.7925 244.816 13.0351 245.022 13.2218C245.236 13.3991 245.512 13.5391 245.848 13.6418C246.193 13.7445 246.576 13.8471 246.996 13.9498C247.416 14.0431 247.831 14.1505 248.242 14.2718C248.662 14.3931 249.04 14.5518 249.376 14.7478C249.721 14.9438 249.996 15.2098 250.202 15.5458C250.416 15.8818 250.524 16.3065 250.524 16.8198C250.524 17.3425 250.379 17.8278 250.09 18.2758C249.81 18.7145 249.376 19.0691 248.788 19.3398C248.2 19.6011 247.458 19.7318 246.562 19.7318ZM256.197 19.5918V9.7918H260.229C261.097 9.7918 261.839 9.9318 262.455 10.2118C263.081 10.4918 263.561 10.8931 263.897 11.4158C264.233 11.9385 264.401 12.5591 264.401 13.2778C264.401 13.9965 264.233 14.6171 263.897 15.1398C263.561 15.6531 263.081 16.0498 262.455 16.3298C261.839 16.6005 261.097 16.7358 260.229 16.7358H257.205L258.017 15.9098V19.5918H256.197ZM262.609 19.5918L260.131 16.0358H262.077L264.569 19.5918H262.609ZM258.017 16.1058L257.205 15.2378H260.145C260.948 15.2378 261.55 15.0651 261.951 14.7198C262.362 14.3745 262.567 13.8938 262.567 13.2778C262.567 12.6525 262.362 12.1718 261.951 11.8358C261.55 11.4998 260.948 11.3318 260.145 11.3318H257.205L258.017 10.4358V16.1058ZM268.118 13.8658H272.99V15.3638H268.118V13.8658ZM268.258 18.0658H273.788V19.5918H266.438V9.7918H273.592V11.3178H268.258V18.0658ZM278.854 19.7318C278.089 19.7318 277.356 19.6245 276.656 19.4098C275.956 19.1858 275.401 18.9011 274.99 18.5558L275.62 17.1418C276.012 17.4498 276.498 17.7065 277.076 17.9118C277.655 18.1171 278.248 18.2198 278.854 18.2198C279.368 18.2198 279.783 18.1638 280.1 18.0518C280.418 17.9398 280.651 17.7905 280.8 17.6038C280.95 17.4078 281.024 17.1885 281.024 16.9458C281.024 16.6471 280.917 16.4091 280.702 16.2318C280.488 16.0451 280.208 15.9005 279.862 15.7978C279.526 15.6858 279.148 15.5831 278.728 15.4898C278.318 15.3965 277.902 15.2891 277.482 15.1678C277.072 15.0371 276.694 14.8738 276.348 14.6778C276.012 14.4725 275.737 14.2018 275.522 13.8658C275.308 13.5298 275.2 13.1005 275.2 12.5778C275.2 12.0458 275.34 11.5605 275.62 11.1218C275.91 10.6738 276.344 10.3191 276.922 10.0578C277.51 9.78713 278.252 9.6518 279.148 9.6518C279.736 9.6518 280.32 9.72646 280.898 9.8758C281.477 10.0251 281.981 10.2398 282.41 10.5198L281.836 11.9338C281.398 11.6725 280.945 11.4811 280.478 11.3598C280.012 11.2291 279.564 11.1638 279.134 11.1638C278.63 11.1638 278.22 11.2245 277.902 11.3458C277.594 11.4671 277.366 11.6258 277.216 11.8218C277.076 12.0178 277.006 12.2418 277.006 12.4938C277.006 12.7925 277.109 13.0351 277.314 13.2218C277.529 13.3991 277.804 13.5391 278.14 13.6418C278.486 13.7445 278.868 13.8471 279.288 13.9498C279.708 14.0431 280.124 14.1505 280.534 14.2718C280.954 14.3931 281.332 14.5518 281.668 14.7478C282.014 14.9438 282.289 15.2098 282.494 15.5458C282.709 15.8818 282.816 16.3065 282.816 16.8198C282.816 17.3425 282.672 17.8278 282.382 18.2758C282.102 18.7145 281.668 19.0691 281.08 19.3398C280.492 19.6011 279.75 19.7318 278.854 19.7318ZM286.301 13.8658H291.173V15.3638H286.301V13.8658ZM286.441 18.0658H291.971V19.5918H284.621V9.7918H291.775V11.3178H286.441V18.0658ZM294 19.5918V9.7918H298.032C298.9 9.7918 299.642 9.9318 300.258 10.2118C300.883 10.4918 301.364 10.8931 301.7 11.4158C302.036 11.9385 302.204 12.5591 302.204 13.2778C302.204 13.9965 302.036 14.6171 301.7 15.1398C301.364 15.6531 300.883 16.0498 300.258 16.3298C299.642 16.6005 298.9 16.7358 298.032 16.7358H295.008L295.82 15.9098V19.5918H294ZM300.412 19.5918L297.934 16.0358H299.88L302.372 19.5918H300.412ZM295.82 16.1058L295.008 15.2378H297.948C298.751 15.2378 299.353 15.0651 299.754 14.7198C300.165 14.3745 300.37 13.8938 300.37 13.2778C300.37 12.6525 300.165 12.1718 299.754 11.8358C299.353 11.4998 298.751 11.3318 297.948 11.3318H295.008L295.82 10.4358V16.1058ZM307.138 19.5918L302.854 9.7918H304.828L308.65 18.6538H307.516L311.38 9.7918H313.2L308.93 19.5918H307.138ZM315.914 13.8658H320.786V15.3638H315.914V13.8658ZM316.054 18.0658H321.584V19.5918H314.234V9.7918H321.388V11.3178H316.054V18.0658ZM323.613 19.5918V9.7918H327.897C328.961 9.7918 329.895 9.99713 330.697 10.4078C331.5 10.8185 332.125 11.3878 332.573 12.1158C333.021 12.8438 333.245 13.7025 333.245 14.6918C333.245 15.6718 333.021 16.5305 332.573 17.2678C332.125 17.9958 331.5 18.5651 330.697 18.9758C329.895 19.3865 328.961 19.5918 327.897 19.5918H323.613ZM325.433 18.0518H327.813C328.551 18.0518 329.185 17.9118 329.717 17.6318C330.259 17.3518 330.674 16.9598 330.963 16.4558C331.262 15.9518 331.411 15.3638 331.411 14.6918C331.411 14.0105 331.262 13.4225 330.963 12.9278C330.674 12.4238 330.259 12.0318 329.717 11.7518C329.185 11.4718 328.551 11.3318 327.813 11.3318H325.433V18.0518Z" fill="white"/>
</svg>
