<svg width="252" height="68" viewBox="0 0 252 68" fill="none" xmlns="http://www.w3.org/2000/svg">
<path d="M210.51 19.3252C205.468 16.6786 201.267 16.4685 199.293 16.4685H192.487L192.109 15.7964H200.133C200.679 15.7964 207.359 15.7124 211.266 16.7626C216.181 18.0649 219.542 20.6275 220.214 21.0896C220.844 21.5097 229.834 27.8951 229.834 27.8951C229.834 27.8951 228.322 29.4495 226.851 29.4495C225.465 29.4495 223.953 28.3573 223.953 28.3573C223.953 28.3573 219.164 24.9125 218.449 24.4084C217.693 23.9042 213.912 21.0896 210.51 19.3252Z" fill="#00A7BE"/>
<path d="M210.132 24.3662C213.535 26.5927 215.509 28.2311 216.14 28.6932C216.812 29.1553 219.794 31.2978 219.794 31.2978C219.794 31.2978 221.181 32.3901 222.861 32.3901C224.163 32.3901 225.718 30.8777 225.718 30.8777C225.718 30.8777 218.534 25.7946 217.904 25.3745C217.274 24.9124 214.963 23.1059 210.636 21.9717C207.066 21.0475 201.94 21.0475 201.604 21.0475H195.051L195.429 21.7196C195.429 21.7196 200.344 21.7196 200.722 21.7196C201.604 21.7616 206.603 21.9717 210.132 24.3662Z" fill="#00A7BE"/>
<path d="M211.224 14.0319C215.593 16.3844 219.878 19.6191 220.676 20.1652C221.474 20.7534 228.028 25.4164 228.028 25.4164C228.028 25.4164 229.54 26.4667 230.969 26.4667C232.355 26.4667 233.909 24.9543 233.909 24.9543C233.909 24.9543 223.449 17.4346 222.525 16.7625C221.6 16.0903 217.82 13.0236 211.77 11.5953C207.023 10.419 199.167 10.5451 198.621 10.5451H189.043L189.421 11.2172H197.781C199.503 11.2172 206.183 11.3012 211.224 14.0319Z" fill="#00A7BE"/>
<path d="M249.117 13.9059C247.815 13.6958 246.134 13.5698 246.134 13.5698L243.824 14.242L242.48 13.1497C242.48 13.1497 245.252 13.3598 246.008 13.4858C246.681 13.4858 246.47 13.1497 246.134 12.4775C245.798 11.8054 245.042 11.8054 245.042 11.8054H238.069C238.069 11.8054 236.85 11.8054 235.422 11.4693C233.952 11.1332 233.406 10.083 233.406 10.083C232.859 11.3433 235.044 12.8556 235.044 12.8556L241.933 17.7708C242.816 18.3169 243.572 17.8968 243.572 17.8968C243.572 17.8968 245.336 17.0146 246.302 16.7625C247.185 16.5525 249.957 16.4264 250.251 16.5525C251.008 16.6785 251.932 17.4347 251.932 17.4347C252.394 14.368 250.419 14.1579 249.117 13.9059Z" fill="#0271E1"/>
<path d="M212.61 3.69764C217.4 5.79811 224.247 10.9233 225.255 11.6374C226.264 12.3516 236.136 19.4512 236.136 19.4512C236.136 19.4512 237.69 20.5435 239.118 20.5435C240.547 20.5435 241.975 19.0731 241.975 19.0731C241.975 19.0731 228.028 9.07486 227.02 8.3607C226.011 7.64654 221.39 3.73965 212.778 1.47113C206.897 -0.0832195 196.773 0.000799707 195.597 0.000799707H182.952L183.372 0.672949H194.924C197.865 0.672949 206.267 0.925005 212.61 3.69764Z" fill="#0271E1"/>
<path d="M211.854 8.86482C206.687 6.30224 200.301 5.96615 196.604 5.96615H186.396L186.018 5.29401H197.151C198.327 5.29401 206.771 5.20999 212.316 6.47027C218.744 7.94061 224.247 12.1416 224.835 12.5196C225.381 12.8977 238.026 21.9718 238.026 21.9718C238.026 21.9718 236.598 23.4421 235.043 23.4421C233.615 23.4421 232.061 22.3499 232.061 22.3499C232.061 22.3499 223.827 16.4685 223.028 15.8804C222.188 15.3343 216.685 11.2594 211.854 8.86482Z" fill="#0271E1"/>
<path d="M27.9359 46.0434C27.8099 46.0434 27.1798 46.0854 26.9277 45.7913C26.7177 45.5813 26.7177 45.2452 26.7177 44.9511V44.0689C25.7934 45.4132 24.2811 46.3374 21.9706 46.2534C18.3157 46.1274 17.5596 43.3128 17.5596 41.7164C17.5596 41.1703 17.6016 40.078 18.4418 38.9858C19.7021 37.1794 22.3907 36.5912 24.7852 36.5912C25.7934 36.5912 26.5916 36.7173 26.5916 36.7173V35.1209C26.5916 34.5748 26.5916 33.5665 26.0035 32.8944C25.4994 32.3483 24.6172 31.9282 23.0628 31.9282C20.5843 31.9282 18.9459 33.3145 18.9459 33.3145L19.24 31.424C19.24 31.424 20.9203 30.2898 23.6089 30.2898C25.8775 30.2898 27.3898 30.9199 28.314 31.8021C29.3643 32.8944 29.6163 33.9026 29.6163 35.9191V45.9594M26.5076 38.1876C26.5076 38.1876 25.7094 38.0196 24.7852 38.0196C22.6847 38.0196 21.1304 38.9438 20.7103 40.3721C20.6263 40.6241 20.5843 41.2123 20.5843 41.5063C20.5843 43.2707 21.8025 44.279 23.3149 44.279C23.6089 44.279 24.0711 44.237 24.4911 44.0689C25.5834 43.6908 26.4656 42.9347 26.4656 41.8004V38.1876H26.5076Z" fill="white"/>
<path d="M37.9765 32.4742C35.3719 32.9783 35.0778 35.0368 35.0778 36.4651V46.0433H32.0111V32.3482C32.0111 31.0039 31.1289 30.7518 31.1289 30.7518H34.1536C34.8257 30.7518 35.0358 31.1299 35.0358 31.55V32.3902C35.1198 32.0961 36.2541 30.6678 38.2705 30.5838C38.9427 30.5418 39.6989 30.5838 40.0769 30.8358L40.497 32.7683C40.0769 32.5582 39.2368 32.2221 37.9765 32.4742Z" fill="white"/>
<path d="M52.638 46.0435C52.512 46.0435 51.8819 46.0855 51.6298 45.7914C51.3778 45.5814 51.3778 45.1613 51.3778 44.9512V44.069C50.5376 45.4133 49.0672 46.2535 47.0088 46.2535C45.4124 46.2535 44.3202 45.8754 43.3539 44.8672C42.3457 43.733 42.0936 42.3466 42.0936 40.4982V32.0963C42.0936 31.0041 41.1694 30.71 41.1694 30.752H44.0261C44.7402 30.752 45.1603 31.0881 45.1603 31.6342V40.8763C45.1603 43.6069 46.0005 44.3631 47.891 44.3631C49.4453 44.3631 51.1677 43.3129 51.1677 41.6745V30.752H54.1924V46.0435" fill="white"/>
<path d="M94.5218 46.0432C93.8916 46.0432 93.5136 45.7912 93.5136 44.993V26.9289C93.5136 25.7946 92.6313 25.3745 92.6313 25.3745H95.572C96.4542 25.3745 96.8323 25.7946 96.8323 26.4248V46.0432" fill="white"/>
<path d="M136.153 46.2953C131.154 46.2533 129.347 43.1446 129.347 38.5236C129.347 34.2806 131.154 30.4157 136.153 30.4577C141.194 30.4997 142.748 34.3226 142.748 38.5236C142.748 42.7665 140.312 46.2953 136.153 46.2953ZM136.195 32.0541C133.128 32.0121 132.582 35.2048 132.582 38.5656C132.582 42.7665 133.632 44.783 136.195 44.783C138.463 44.783 139.513 42.1784 139.513 38.5656C139.513 35.6249 139.261 32.0541 136.195 32.0541Z" fill="white"/>
<path d="M181.901 44.9511C180.809 45.8753 179.381 46.2954 177.742 46.3374H177.574C175.18 46.3374 173.877 45.7073 173.289 45.3712L172.869 43.5648C172.869 43.5648 174.928 44.9511 177.112 44.9511C179.213 44.9511 180.431 43.8169 180.263 41.9264C180.053 38.9438 173.163 39.6579 173.163 34.7428C173.163 32.0542 175.348 30.6259 178.078 30.5839H178.246C181.061 30.5839 182.069 31.5921 182.069 31.5921L182.489 33.2725C182.489 33.2725 181.271 32.0962 178.877 32.0962C176.314 32.0962 176.02 34.1547 176.104 34.7428C176.272 36.2131 177.364 36.5912 179.423 37.4734C181.523 38.3976 183.203 39.5319 183.203 41.7584C183.246 43.1447 182.699 44.237 181.901 44.9511Z" fill="white"/>
<path d="M186.018 46.0432C185.43 46.0432 185.136 45.7491 185.136 45.245V32.138C185.136 31.1298 184.169 30.7517 184.169 30.7517H187.278C187.908 30.7517 188.16 31.0878 188.16 31.6339V46.0012" fill="white"/>
<path d="M102.042 30.7519C102.63 30.7519 102.924 31.004 102.924 31.5501V32.7684C103.764 31.4241 105.234 30.5419 107.251 30.5419C108.847 30.5419 109.939 30.92 110.906 31.9282C111.914 33.0625 112.166 34.4068 112.166 36.2972V46.0434H110.318C109.561 46.0434 109.099 45.5393 109.099 44.7831V35.9611C109.099 33.2305 108.301 32.4743 106.369 32.4743C104.814 32.4743 103.092 33.5245 103.092 35.1629V46.0434H100.067V32.0962C100.067 31.004 99.2271 30.7939 99.2271 30.7939" fill="white"/>
<path d="M200.596 46.0434C200.47 46.0434 199.84 46.0854 199.588 45.7913C199.378 45.5813 199.378 45.2452 199.378 44.9511V44.0689C198.454 45.4132 196.899 46.3374 194.589 46.2534C190.976 46.1274 190.178 43.3128 190.178 41.7164C190.178 41.1703 190.22 40.078 191.06 38.9858C192.32 37.1794 195.009 36.5912 197.361 36.5912C198.37 36.5912 199.168 36.7173 199.168 36.7173V35.1209C199.168 34.5748 199.252 33.6506 198.622 32.8944C198.16 32.3062 197.193 31.8862 195.513 31.9282C192.656 31.9702 191.522 33.3145 191.522 33.3145L191.816 31.424C191.816 31.424 193.496 30.2898 196.185 30.2898C198.412 30.2898 199.966 30.9199 200.89 31.8021C201.94 32.8944 202.192 33.9026 202.192 35.9191V45.9594M199.168 38.1876C199.168 38.1876 198.412 38.0196 197.445 38.0196C195.345 38.0196 193.833 38.9438 193.37 40.3721C193.286 40.6241 193.244 41.2123 193.244 41.5063C193.244 43.2707 194.505 44.279 195.975 44.279C196.269 44.279 196.773 44.237 197.151 44.0689C198.244 43.6908 199.126 42.9347 199.126 41.8004V38.1876H199.168Z" fill="white"/>
<path d="M67.0479 46.0433C66.4597 46.0433 66.2497 45.8332 66.2497 45.2871V44.5309C65.1154 45.5391 63.9812 46.2113 62.3008 46.2533H62.2588C57.8898 46.2533 56.3774 42.5565 56.3774 38.4815C56.3774 35.4148 57.5537 30.4157 62.4268 30.4157C65.3255 30.4157 66.1237 32.1801 66.1237 32.1801V26.9289C66.1237 25.8367 65.1994 25.2905 65.1994 25.2905H67.594C68.4762 25.2905 69.1904 25.9207 69.1904 26.5928V46.0012M66.0816 35.919C66.0816 35.0788 65.9556 33.8185 65.2835 33.0623C64.7794 32.5582 64.0232 32.2221 62.9309 32.2221C59.9483 32.2221 59.6122 36.129 59.6122 38.3135V38.5235C59.6542 41.5482 60.4944 44.5309 62.9729 44.5309C64.3172 44.5309 65.2415 44.0268 66.0396 42.9766V35.919H66.0816Z" fill="white"/>
<path d="M81.7924 46.0434C81.6664 46.0434 81.0782 46.0854 80.7842 45.7913C80.5321 45.5813 80.5321 45.2452 80.5321 44.9511V44.0689C79.6499 45.4132 78.0956 46.3374 75.785 46.2534C72.1722 46.1274 71.374 43.3128 71.374 41.7164C71.374 41.1703 71.416 40.078 72.2562 38.9858C73.5585 37.1794 76.2051 36.5912 78.5997 36.5912C79.6079 36.5912 80.4061 36.7173 80.4061 36.7173V35.1209C80.4061 34.5748 80.4061 33.5665 79.86 32.8944C79.3558 32.3483 78.4736 31.9282 76.9193 31.9282C74.3987 31.9282 72.8023 33.3145 72.8023 33.3145L73.0964 31.424C73.0964 31.424 74.7768 30.2898 77.4654 30.2898C79.7339 30.2898 81.2883 30.9199 82.1705 31.8021C83.2207 32.8944 83.4728 33.9026 83.4728 35.9191V45.9594M80.3641 38.1876C80.3641 38.1876 79.6079 38.0196 78.6417 38.0196C76.5412 38.0196 74.9868 38.9438 74.5667 40.3721C74.4407 40.6241 74.4407 41.2123 74.4407 41.5063C74.4407 43.2707 75.659 44.279 77.2134 44.279C77.5074 44.279 77.9695 44.237 78.3896 44.0689C79.4399 43.6908 80.3641 42.9347 80.3641 41.8004V38.1876Z" fill="white"/>
<path d="M125.105 46.0433C124.516 46.0433 124.306 45.8332 124.306 45.2871V44.5309C123.172 45.5391 122.038 46.2113 120.357 46.2533H120.273C115.904 46.2533 114.434 42.5565 114.434 38.4815C114.434 35.4148 115.61 30.4157 120.441 30.4157C123.382 30.4157 124.18 32.1801 124.18 32.1801V26.9289C124.18 25.8367 123.256 25.2905 123.256 25.2905H125.651C126.575 25.2905 127.247 25.9207 127.247 26.5928V46.0012M124.138 35.919C124.138 35.0788 124.012 33.8185 123.34 33.0623C122.836 32.5582 122.08 32.2221 120.988 32.2221C118.005 32.2221 117.669 36.129 117.669 38.3135V38.5235C117.711 41.5482 118.551 44.5309 121.03 44.5309C122.374 44.5309 123.298 44.0268 124.138 42.9766V35.919Z" fill="white"/>
<path d="M146.907 30.7519C147.496 30.7519 147.79 31.004 147.79 31.5501V32.7684C148.63 31.4241 150.1 30.5419 152.159 30.5419C153.755 30.5419 154.805 30.92 155.771 31.9282C156.738 33.0625 157.032 34.4068 157.032 36.2972V46.0434H155.183C154.427 46.0434 153.965 45.5393 153.965 44.7831V35.9611C153.965 33.2305 153.167 32.4743 151.234 32.4743C149.68 32.4743 147.958 33.5245 147.958 35.1629V46.0434H144.933V32.0962C144.933 31.004 144.093 30.7939 144.093 30.7939" fill="white"/>
<path d="M12.6029 46.1695C11.3846 46.3375 10.6284 46.3795 9.45215 46.3795C6.30144 46.3795 4.28498 45.4133 2.81464 43.943C0.588133 41.7165 0 38.0616 0 35.7931C0 33.9447 0.336077 30.3319 3.27675 27.5172C4.66306 26.2149 6.80555 25.1227 9.99828 25.1227C12.8549 25.1227 14.2412 25.9209 14.2412 25.9209L14.7874 27.8113C14.6613 27.7273 13.191 26.8871 10.7544 26.8871C5.7133 26.8871 3.57081 30.3739 3.57081 35.7511C3.57081 43.901 7.56172 44.5311 9.78823 44.5311C11.3846 44.5311 12.0147 44.279 12.0147 44.279V36.1712H10.2503C9.07407 36.1712 8.56995 36.3813 8.56995 36.3813L8.82201 34.7429H15.2915V45.5393C14.2412 45.8754 13.6531 46.0434 12.6029 46.1695Z" fill="white"/>
<path d="M166.946 30.3739C170.559 30.626 171.357 33.3566 171.357 34.911C171.357 35.4571 171.315 36.5073 170.475 37.6416C169.173 39.448 166.526 40.0361 164.131 40.0361C163.123 40.0361 162.325 39.8681 162.325 39.8681V41.2964C162.325 43.985 163.753 44.6992 166.106 44.6572C168.752 44.6152 170.811 42.9768 170.811 42.9768L170.517 44.8672C170.517 44.8672 168.122 46.2536 165.434 46.2536C163.165 46.2536 161.485 45.6654 160.561 44.6992C159.426 43.5229 159.258 41.9686 159.258 39.9521V36.5914C159.3 33.8187 160.477 29.9118 166.946 30.3739ZM162.367 38.3978C162.367 38.3978 163.165 38.5658 164.089 38.5658C167.45 38.5658 168.248 36.8854 168.416 34.995C168.542 33.2726 168.08 31.5502 165.434 31.8863C163.039 32.1804 162.367 33.7767 162.367 35.7512C162.367 37.3475 162.367 38.3978 162.367 38.3978Z" fill="white"/>
<path d="M42.2196 54.529H39.699L37.5565 64.7374H36.2542L38.3967 54.487H35.4561L36.0022 53.3528H42.7237L42.2196 54.529Z" fill="white"/>
<path d="M48.2691 60.3264L47.3029 64.7374H46.2527L47.2189 60.3264C47.3029 59.8643 47.3869 59.4022 47.3869 59.0241C47.3869 58.646 47.3869 58.2679 47.3029 58.0158C47.2189 57.7218 47.0929 57.5117 46.8828 57.3437C46.7148 57.1757 46.4627 57.1336 46.1686 57.1336C45.7485 57.1336 45.3284 57.3437 44.9504 57.7218C44.5723 58.0999 44.2362 58.562 43.9421 59.1501C43.6481 59.6962 43.354 60.3264 43.144 60.9565C42.9339 61.5867 42.7239 62.1748 42.5978 62.6789L42.0517 64.8214H41.0015L43.438 53.3528H44.5303L43.144 59.7802C43.354 59.1081 43.6481 58.52 43.9421 58.0158C44.0682 57.8058 44.2362 57.5537 44.4042 57.3437C44.5723 57.1336 44.7403 56.9236 44.9504 56.7556C45.1604 56.5875 45.3705 56.4615 45.5805 56.3355C45.8326 56.2094 46.0426 56.1674 46.3367 56.1674C46.7988 56.1674 47.1769 56.2934 47.5129 56.4615C47.807 56.6715 48.0591 56.9656 48.2271 57.3437C48.3951 57.7218 48.4792 58.1419 48.4792 58.646C48.4792 59.1501 48.4372 59.6962 48.2691 60.3264Z" fill="white"/>
<path d="M55.9567 59.6124C55.8727 59.9905 55.7467 60.2426 55.5786 60.3686C55.4526 60.4946 55.3266 60.5786 55.2425 60.5786L50.6635 60.8727C50.5795 61.3348 50.5795 61.7549 50.6635 62.175C50.7055 62.3431 50.7475 62.5111 50.8315 62.6791C50.9156 62.8472 50.9996 63.0152 51.1256 63.1412C51.2516 63.3093 51.4197 63.4353 51.5877 63.5193C51.7558 63.6453 52.0078 63.6874 52.2599 63.7714C52.638 63.8554 53.016 63.8554 53.3101 63.8134C53.6042 63.7714 53.8982 63.6874 54.1503 63.5613C54.4024 63.4353 54.6544 63.3093 54.9065 63.0992L54.6544 64.0234C54.6124 64.1075 54.6124 64.1495 54.5704 64.1915C54.5284 64.2335 54.4864 64.2755 54.3603 64.3595C54.3183 64.4015 54.2763 64.4435 54.1503 64.4855C54.0243 64.5696 53.8562 64.6116 53.6882 64.6536C53.4781 64.6956 53.2261 64.7376 52.932 64.7796C52.638 64.7796 52.3019 64.7796 51.8818 64.6956C51.4617 64.6116 51.0416 64.4855 50.7055 64.2335C50.3694 63.9814 50.0754 63.6874 49.8653 63.3093C49.6553 62.9312 49.4872 62.5111 49.4032 62.007C49.3192 61.5029 49.3612 60.9567 49.4452 60.4106C49.5713 59.6544 49.7813 59.0243 50.0754 58.4362C50.3694 57.89 50.7055 57.3859 51.1256 57.0498C51.5037 56.6718 51.9658 56.4197 52.3859 56.2517C52.848 56.0836 53.3101 56.0416 53.7302 56.0836C54.1923 56.1256 54.6124 56.2937 54.9065 56.5457C55.2005 56.7978 55.4526 57.0919 55.6206 57.4279C55.7887 57.764 55.9147 58.1421 55.9147 58.5202C56.0827 58.9403 56.0407 59.3184 55.9567 59.6124ZM54.8645 59.3184C54.9485 59.0243 54.9485 58.7302 54.9485 58.4782C54.9065 58.2261 54.8645 57.9741 54.7384 57.764C54.6124 57.554 54.4864 57.3859 54.2763 57.2599C54.0663 57.1339 53.8562 57.0498 53.6042 57.0498C53.3101 57.0078 53.0581 57.0499 52.806 57.1339C52.5539 57.2179 52.3439 57.3019 52.1759 57.4699C52.0078 57.596 51.8398 57.764 51.6717 57.9321C51.5457 58.1001 51.4197 58.3101 51.2936 58.5202C51.0416 58.9823 50.8736 59.4864 50.7475 60.0745L54.4024 59.7805C54.4864 59.7805 54.5704 59.7385 54.6544 59.6544C54.7804 59.5704 54.8225 59.4864 54.8645 59.3184Z" fill="white"/>
<path d="M66.7956 64.7374L66.5855 62.3428H61.9645L60.6622 64.7374H59.2759L65.2412 53.3528H66.8796L68.1399 64.7374H66.7956ZM65.8714 54.8231L62.5946 61.1666H66.5015L65.8714 54.8231Z" fill="white"/>
<path d="M71.6686 56.3357L69.9042 64.6956H68.854L70.6184 56.3357H71.6686ZM72.2988 54.2353C72.2568 54.4453 72.1728 54.6133 72.0047 54.6974C71.8367 54.7814 71.6686 54.8234 71.5006 54.8234C71.3326 54.7814 71.1645 54.7394 71.0385 54.6133C70.9125 54.4873 70.8705 54.3613 70.9125 54.1512C70.9545 53.9412 71.0385 53.7732 71.2065 53.6891C71.3746 53.6051 71.5426 53.5631 71.7107 53.5631C71.8787 53.5631 72.0467 53.6471 72.1308 53.7732C72.2568 53.8572 72.3408 54.0252 72.2988 54.2353Z" fill="white"/>
<path d="M77.3818 57.4698C77.3398 57.4277 77.2977 57.3437 77.2137 57.3017C77.1297 57.2597 77.0877 57.2177 76.9617 57.1757C76.8776 57.1337 76.7096 57.1337 76.5416 57.1337C76.2475 57.1337 75.9954 57.2177 75.7434 57.3857C75.4913 57.5538 75.2393 57.8058 75.0292 58.0999C74.8192 58.394 74.6091 58.73 74.4411 59.1081C74.2731 59.4862 74.105 59.8643 73.937 60.2844C73.7689 60.7045 73.6429 61.0826 73.5589 61.5027C73.4329 61.9228 73.3488 62.2589 73.2648 62.5949L72.7187 64.7374H71.6685L73.4329 56.3355H74.4831L73.853 59.2762C74.021 58.7301 74.231 58.2259 74.4411 57.8058C74.5671 57.6378 74.6511 57.4277 74.7772 57.2597C74.9032 57.0917 75.0292 56.8816 75.1973 56.7556C75.3653 56.5876 75.5333 56.4615 75.7014 56.3775C75.8694 56.2935 76.0795 56.2095 76.2895 56.2095C76.4996 56.2095 76.6676 56.2095 76.7936 56.2515C76.9197 56.2935 77.0457 56.3355 77.1297 56.3775C77.2137 56.4195 77.2557 56.5035 77.2977 56.6296V57.4698" fill="white"/>
<path d="M77.2973 64.7374H76.2471L78.6836 53.2688H79.7759L77.2973 64.7374Z" fill="white"/>
<path d="M82.0441 56.3357L80.2797 64.6956H79.2295L80.9939 56.3357H82.0441ZM82.6743 54.2353C82.6323 54.4453 82.5482 54.6133 82.3802 54.6974C82.2122 54.7814 82.0441 54.8234 81.8761 54.8234C81.7081 54.7814 81.54 54.7394 81.456 54.6133C81.33 54.4873 81.288 54.3613 81.33 54.1512C81.372 53.9412 81.456 53.7732 81.624 53.6891C81.7921 53.6051 81.9601 53.5631 82.1281 53.5631C82.2962 53.5631 82.4642 53.6471 82.5482 53.7732C82.6323 53.8572 82.6743 54.0252 82.6743 54.2353Z" fill="white"/>
<path d="M88.8087 60.3264L87.8425 64.7374H86.7922L87.7584 60.3264C87.8845 59.8643 87.9265 59.4022 87.9265 59.0241C87.9265 58.646 87.9265 58.2679 87.8425 58.0159C87.7584 57.7218 87.6324 57.5118 87.4224 57.3437C87.2543 57.1757 87.0023 57.1337 86.7082 57.1337C86.2881 57.1337 85.868 57.3437 85.4899 57.7218C85.1118 58.0999 84.7758 58.562 84.4817 59.1501C84.1876 59.6963 83.8936 60.2844 83.6835 60.9566C83.4735 61.5867 83.2634 62.1748 83.1374 62.6789L82.5913 64.8214H81.541L83.3474 56.4615H84.3977L83.6835 59.8223C83.8936 59.1501 84.1876 58.562 84.4817 58.0579C84.6077 57.8478 84.7758 57.5958 84.9438 57.3857C85.1118 57.1757 85.2799 56.9656 85.4899 56.7976C85.7 56.6296 85.91 56.5035 86.1201 56.3775C86.3721 56.2515 86.5822 56.2095 86.8762 56.2095C87.3383 56.2095 87.7164 56.3355 88.0525 56.5035C88.3886 56.6716 88.5986 57.0077 88.7667 57.3857C88.9347 57.7638 89.0187 58.1839 89.0187 58.688C89.0187 59.1501 88.9347 59.6963 88.8087 60.3264Z" fill="white"/>
<path d="M96.4963 59.6124C96.4122 59.9905 96.2862 60.2426 96.1182 60.3686C95.9921 60.4946 95.8661 60.5786 95.7821 60.5786L91.2031 60.8727C91.119 61.3348 91.119 61.7549 91.2031 62.175C91.2451 62.3431 91.2871 62.5111 91.3711 62.6791C91.4551 62.8472 91.5391 63.0152 91.6652 63.1412C91.7912 63.3093 91.9592 63.4353 92.1273 63.5193C92.2953 63.6453 92.5054 63.6874 92.7994 63.7714C93.1775 63.8554 93.5556 63.8554 93.8497 63.8134C94.1437 63.7714 94.4378 63.6874 94.6899 63.5613C94.9419 63.4353 95.194 63.3093 95.446 63.0992L95.194 64.0234C95.152 64.1075 95.152 64.1495 95.1099 64.1915C95.0679 64.2335 95.0259 64.2755 94.8999 64.3595C94.8579 64.4015 94.8159 64.4435 94.6899 64.4855C94.5638 64.5696 94.4378 64.6116 94.2277 64.6536C94.0177 64.6956 93.7656 64.7376 93.4716 64.7796C93.1775 64.7796 92.8414 64.7796 92.4213 64.6956C92.0012 64.6116 91.5811 64.4855 91.2451 64.2335C90.909 63.9814 90.6149 63.6874 90.4049 63.3093C90.1948 62.9312 90.0268 62.5111 89.9428 62.007C89.8588 61.5029 89.9008 60.9567 89.9848 60.4106C90.1108 59.6544 90.3209 59.0243 90.6149 58.4362C90.909 57.89 91.2451 57.3859 91.6652 57.0498C92.0433 56.6718 92.5054 56.4197 92.9255 56.2517C93.3876 56.0836 93.8497 56.0416 94.2698 56.0836C94.7319 56.1256 95.152 56.2937 95.446 56.5457C95.7401 56.7978 95.9921 57.0919 96.1602 57.4279C96.3282 57.764 96.4122 58.1421 96.4543 58.5202C96.5803 58.9403 96.5803 59.3184 96.4963 59.6124ZM95.404 59.3184C95.488 59.0243 95.488 58.7302 95.488 58.4782C95.446 58.2261 95.404 57.9741 95.278 57.764C95.152 57.554 95.0259 57.3859 94.8159 57.2599C94.6058 57.1339 94.3958 57.0498 94.1437 57.0498C93.8497 57.0078 93.5976 57.0499 93.3455 57.1339C93.0935 57.2179 92.8834 57.3019 92.7154 57.4699C92.5474 57.596 92.3793 57.764 92.2113 57.9321C92.0853 58.1001 91.9592 58.3101 91.8332 58.5202C91.5811 58.9823 91.4131 59.4864 91.2871 60.0745L94.9419 59.7805C95.0259 59.7805 95.1099 59.7385 95.194 59.6544C95.32 59.5704 95.362 59.4864 95.404 59.3184Z" fill="white"/>
<path d="M107.712 60.5785C107.586 61.2927 107.418 61.9229 107.166 62.511C106.914 63.0991 106.62 63.5612 106.242 63.9393C105.864 64.3174 105.444 64.5695 104.982 64.7375C104.477 64.9055 103.973 64.9475 103.343 64.8635C102.713 64.7795 102.251 64.5695 101.873 64.2754C101.537 63.9813 101.285 63.6032 101.075 63.2252C100.907 62.8051 100.823 62.385 100.781 61.9229C100.739 61.4608 100.781 61.0407 100.823 60.6626C100.907 59.9484 101.075 59.2763 101.327 58.7301C101.579 58.142 101.873 57.6799 102.209 57.3018C102.587 56.9237 103.007 56.6297 103.511 56.4616C104.015 56.2936 104.561 56.2096 105.192 56.2936C105.738 56.3356 106.2 56.5456 106.578 56.7977C106.956 57.0918 107.208 57.4278 107.418 57.8479C107.628 58.268 107.754 58.7301 107.754 59.2343C107.838 59.5703 107.796 60.0744 107.712 60.5785ZM106.452 60.6206C106.494 60.3265 106.536 60.0324 106.536 59.6543C106.578 59.2763 106.536 58.8982 106.452 58.5621C106.368 58.184 106.242 57.8899 105.99 57.5959C105.78 57.3018 105.444 57.1338 105.024 57.0918C104.561 57.0498 104.183 57.0918 103.847 57.2178C103.511 57.3858 103.217 57.5959 103.007 57.932C102.755 58.268 102.545 58.6461 102.419 59.1082C102.251 59.5703 102.125 60.0744 102.083 60.6626C102.041 61.0827 101.999 61.5028 102.041 61.8808C102.083 62.2589 102.125 62.595 102.251 62.8891C102.377 63.1831 102.545 63.4352 102.755 63.6453C102.965 63.8553 103.259 63.9393 103.595 63.9813C104.057 64.0653 104.477 63.9813 104.814 63.7713C105.15 63.5612 105.444 63.2672 105.696 62.9311C105.948 62.595 106.116 62.2169 106.242 61.7968C106.326 61.3347 106.41 60.9566 106.452 60.6206Z" fill="white"/>
<path d="M113.174 54.6133C113.132 54.5293 113.09 54.4453 113.006 54.4033C112.964 54.3613 112.88 54.3193 112.754 54.2772C112.67 54.2352 112.501 54.2353 112.333 54.2353C112.165 54.2353 112.039 54.2773 111.913 54.4033C111.787 54.4873 111.703 54.6133 111.619 54.7394C111.535 54.8654 111.493 54.9914 111.451 55.1174C111.409 55.2435 111.367 55.3275 111.367 55.4115L111.157 56.3777H112.712L112.417 57.2599H110.947L108.847 67.3422H107.754L109.855 57.2599H108.595L108.889 56.3777H110.065L110.275 55.4115C110.317 55.1595 110.401 54.8654 110.485 54.6133C110.569 54.3613 110.695 54.1512 110.863 53.9412C110.989 53.7311 111.199 53.6051 111.409 53.4791C111.619 53.353 111.871 53.311 112.123 53.311C112.333 53.311 112.501 53.353 112.628 53.3951C112.754 53.4371 112.88 53.4791 112.964 53.5631C113.048 53.6471 113.09 53.6891 113.132 53.7731V54.6133" fill="white"/>
<path d="M116.535 64.7374H115.232L117.627 53.3528H118.887L116.535 64.7374Z" fill="white"/>
<path d="M125.609 60.3264L124.643 64.7374H123.551L124.517 60.3264C124.601 59.8643 124.685 59.4022 124.685 59.0241C124.685 58.646 124.685 58.2679 124.601 58.0159C124.517 57.7218 124.391 57.5118 124.181 57.3437C124.013 57.1757 123.761 57.1337 123.466 57.1337C123.046 57.1337 122.626 57.3437 122.248 57.7218C121.87 58.0999 121.534 58.562 121.24 59.1501C120.946 59.6963 120.652 60.2844 120.442 60.9566C120.232 61.5867 120.022 62.1748 119.938 62.6789L119.392 64.8214H118.299L120.106 56.4615H121.156L120.442 59.8223C120.652 59.1501 120.946 58.562 121.24 58.0579C121.366 57.8478 121.534 57.5958 121.702 57.3857C121.87 57.1757 122.038 56.9656 122.248 56.7976C122.458 56.6296 122.668 56.5035 122.878 56.3775C123.13 56.2515 123.382 56.2095 123.635 56.2095C124.097 56.2095 124.475 56.3355 124.811 56.5035C125.105 56.7136 125.357 57.0077 125.525 57.3857C125.693 57.7638 125.777 58.1839 125.777 58.688C125.777 59.1501 125.735 59.6963 125.609 60.3264Z" fill="white"/>
<path d="M134.809 53.311L132.372 64.7376H131.322L132.036 61.3349C131.826 61.965 131.574 62.5531 131.238 63.0573C131.112 63.2673 130.944 63.4774 130.776 63.6874C130.608 63.8975 130.44 64.0655 130.23 64.2335C130.019 64.4016 129.809 64.5276 129.557 64.6536C129.347 64.7376 129.095 64.8217 128.801 64.8217C128.255 64.8637 127.835 64.6956 127.541 64.4016C127.247 64.1075 126.995 63.7294 126.869 63.3093C126.743 62.8472 126.659 62.3851 126.659 61.881C126.659 61.3769 126.701 60.9568 126.743 60.5787C126.827 59.9906 126.995 59.4444 127.247 58.9403C127.499 58.3942 127.793 57.9321 128.129 57.554C128.465 57.1339 128.885 56.7978 129.305 56.5458C129.725 56.2937 130.23 56.1677 130.734 56.1677C131.07 56.1677 131.406 56.2097 131.658 56.2937C131.91 56.4197 132.12 56.5038 132.33 56.6298C132.498 56.7558 132.666 56.9239 132.834 57.1759L133.674 53.311H134.809ZM132.708 58.0161C132.582 57.8061 132.456 57.638 132.33 57.512C132.204 57.386 132.036 57.2599 131.784 57.1759C131.574 57.0919 131.28 57.0499 130.986 57.0499C130.566 57.0499 130.187 57.1339 129.851 57.344C129.515 57.512 129.221 57.764 129.011 58.1001C128.759 58.3942 128.549 58.7723 128.423 59.2344C128.255 59.6545 128.129 60.1586 128.045 60.7047C127.961 61.1248 127.961 61.5029 127.961 61.881C127.961 62.2591 128.003 62.5951 128.087 62.8892C128.171 63.1833 128.297 63.4353 128.465 63.6034C128.633 63.7714 128.843 63.8974 129.053 63.9395C129.305 63.9815 129.557 63.8974 129.809 63.7294C130.061 63.5614 130.314 63.3513 130.524 63.0573C130.776 62.7632 130.986 62.4271 131.196 62.049C131.406 61.6709 131.616 61.2929 131.784 60.8728C131.952 60.4527 132.12 60.0746 132.246 59.6545C132.372 59.2344 132.498 58.8983 132.582 58.5622L132.708 58.0161Z" fill="white"/>
<path d="M141.446 60.5785C141.32 61.2927 141.152 61.9229 140.9 62.511C140.648 63.0991 140.354 63.5612 139.976 63.9393C139.598 64.3174 139.178 64.5695 138.715 64.7375C138.253 64.9055 137.707 64.9475 137.077 64.8635C136.447 64.7795 135.985 64.5695 135.607 64.2754C135.271 63.9813 134.977 63.6032 134.809 63.2252C134.64 62.8051 134.556 62.385 134.514 61.9229C134.472 61.4608 134.514 61.0407 134.556 60.6626C134.641 59.9484 134.809 59.2763 135.061 58.7301C135.313 58.142 135.607 57.6799 135.943 57.3018C136.321 56.9237 136.741 56.6297 137.245 56.4616C137.749 56.2936 138.295 56.2096 138.925 56.2936C139.472 56.3356 139.934 56.5456 140.312 56.7977C140.69 57.0918 140.942 57.4278 141.152 57.8479C141.362 58.268 141.488 58.7301 141.488 59.2343C141.53 59.5703 141.53 60.0744 141.446 60.5785ZM140.186 60.6206C140.228 60.3265 140.27 60.0324 140.27 59.6543C140.312 59.2763 140.27 58.8982 140.186 58.5621C140.102 58.184 139.976 57.8899 139.724 57.5959C139.514 57.3018 139.178 57.1338 138.757 57.0918C138.295 57.0498 137.917 57.0918 137.581 57.2178C137.245 57.3858 136.951 57.5959 136.741 57.932C136.489 58.268 136.279 58.6461 136.153 59.1082C135.985 59.5703 135.859 60.0744 135.817 60.6626C135.775 61.0827 135.733 61.5028 135.775 61.8808C135.817 62.2589 135.859 62.595 135.985 62.8891C136.111 63.1831 136.279 63.4352 136.489 63.6453C136.699 63.8553 136.993 63.9393 137.329 63.9813C137.791 64.0653 138.211 63.9813 138.547 63.7713C138.883 63.5612 139.178 63.2672 139.43 62.9311C139.682 62.595 139.85 62.2169 139.976 61.7968C140.018 61.3347 140.102 60.9566 140.186 60.6206Z" fill="white"/>
<path d="M148.755 60.3264L147.789 64.7374H146.739L147.705 60.3264C147.789 59.8643 147.873 59.4022 147.873 59.0241C147.873 58.646 147.873 58.2679 147.789 58.0159C147.705 57.7218 147.579 57.5118 147.369 57.3437C147.159 57.1757 146.949 57.1337 146.655 57.1337C146.235 57.1337 145.815 57.3437 145.437 57.7218C145.059 58.0999 144.723 58.562 144.428 59.1501C144.134 59.6963 143.84 60.2844 143.63 60.9566C143.42 61.5867 143.21 62.1748 143.084 62.6789L142.538 64.8214H141.488L143.294 56.4615H144.344L143.63 59.8223C143.84 59.1501 144.134 58.562 144.428 58.0579C144.554 57.8478 144.723 57.5958 144.891 57.3857C145.059 57.1757 145.227 56.9656 145.437 56.7976C145.647 56.6296 145.857 56.5035 146.067 56.3775C146.319 56.2515 146.571 56.2095 146.823 56.2095C147.285 56.2095 147.663 56.3355 147.999 56.5035C148.293 56.7136 148.545 57.0077 148.713 57.3857C148.881 57.7638 148.965 58.1839 148.965 58.688C148.965 59.1501 148.881 59.6963 148.755 60.3264Z" fill="white"/>
<path d="M156.444 59.6124C156.36 59.9905 156.233 60.2426 156.065 60.3686C155.939 60.4946 155.813 60.5786 155.729 60.5786L151.15 60.8727C151.066 61.3348 151.066 61.7549 151.15 62.175C151.192 62.3431 151.234 62.5111 151.318 62.6791C151.402 62.8472 151.486 63.0152 151.612 63.1412C151.738 63.3093 151.906 63.4353 152.075 63.5193C152.243 63.6453 152.453 63.6874 152.747 63.7714C153.125 63.8554 153.503 63.8554 153.797 63.8134C154.091 63.7714 154.385 63.6874 154.637 63.5613C154.889 63.4353 155.141 63.3093 155.393 63.0992L155.141 64.0234C155.141 64.1075 155.099 64.1495 155.057 64.1915C155.015 64.2335 154.973 64.2755 154.847 64.3595C154.805 64.4015 154.763 64.4435 154.637 64.4855C154.511 64.5696 154.385 64.6116 154.175 64.6536C153.965 64.6956 153.713 64.7376 153.419 64.7796C153.125 64.7796 152.789 64.7796 152.369 64.6956C151.949 64.6116 151.528 64.4855 151.192 64.2335C150.856 63.9814 150.562 63.6874 150.352 63.3093C150.142 62.9312 149.974 62.5111 149.89 62.007C149.806 61.5029 149.848 60.9567 149.932 60.4106C150.058 59.6544 150.268 59.0243 150.562 58.4362C150.856 57.89 151.192 57.3859 151.612 57.0498C151.991 56.6718 152.453 56.4197 152.873 56.2517C153.335 56.0836 153.797 56.0416 154.217 56.0836C154.679 56.1256 155.099 56.2937 155.393 56.5457C155.687 56.7978 155.939 57.0919 156.107 57.4279C156.275 57.764 156.402 58.1421 156.402 58.5202C156.528 58.9403 156.528 59.3184 156.444 59.6124ZM155.351 59.3184C155.435 59.0243 155.435 58.7302 155.435 58.4782C155.393 58.2261 155.351 57.9741 155.225 57.764C155.099 57.554 154.973 57.3859 154.763 57.2599C154.553 57.1339 154.343 57.0498 154.091 57.0498C153.797 57.0078 153.545 57.0499 153.293 57.1339C153.041 57.2179 152.831 57.3019 152.663 57.4699C152.495 57.596 152.327 57.764 152.159 57.9321C152.033 58.1001 151.906 58.3101 151.78 58.5202C151.528 58.9823 151.36 59.4864 151.234 60.0745L154.889 59.7805C154.973 59.7805 155.057 59.7385 155.141 59.6544C155.267 59.5704 155.309 59.4864 155.351 59.3184Z" fill="white"/>
<path d="M162.367 57.848C162.283 57.722 162.115 57.5959 161.989 57.5119C161.863 57.4279 161.695 57.3439 161.484 57.2599C161.274 57.1758 161.064 57.1338 160.812 57.0918C160.266 57.0078 159.846 57.0918 159.51 57.2599C159.174 57.4279 158.964 57.722 158.922 58.1C158.88 58.3941 158.922 58.6462 159.048 58.8982C159.174 59.1503 159.384 59.3603 159.594 59.5704C159.804 59.7804 160.056 59.9905 160.35 60.2425C160.644 60.4526 160.896 60.7046 161.106 60.9567C161.316 61.2088 161.527 61.4608 161.653 61.7549C161.779 62.049 161.821 62.385 161.779 62.8051C161.737 63.1832 161.611 63.5193 161.442 63.8133C161.274 64.1074 161.022 64.3175 160.77 64.4855C160.476 64.6535 160.182 64.7796 159.804 64.8216C159.468 64.9056 159.048 64.9056 158.67 64.8636C158.376 64.8216 158.124 64.7796 157.872 64.7376C157.62 64.6535 157.41 64.6115 157.242 64.5275C157.073 64.4435 156.905 64.3595 156.821 64.3175C156.695 64.2334 156.653 64.1914 156.611 64.1494C156.527 64.0654 156.485 63.9814 156.485 63.8974C156.485 63.8134 156.485 63.7293 156.527 63.6873L156.653 62.9311C156.863 63.0992 157.073 63.2672 157.284 63.3933C157.494 63.5193 157.746 63.6033 157.998 63.7293C158.25 63.8133 158.544 63.8974 158.88 63.8974C159.048 63.9394 159.258 63.8974 159.468 63.8974C159.678 63.8554 159.846 63.8133 160.014 63.7293C160.182 63.6453 160.308 63.5193 160.434 63.3933C160.56 63.2672 160.602 63.0572 160.644 62.8471C160.686 62.5531 160.644 62.259 160.518 62.0069C160.392 61.7549 160.224 61.5028 159.972 61.2928C159.762 61.0827 159.51 60.8727 159.216 60.6626C158.922 60.4526 158.67 60.2005 158.46 59.9905C158.25 59.7384 158.04 59.4864 157.914 59.1923C157.788 58.8982 157.704 58.5622 157.746 58.2261C157.788 57.89 157.872 57.5959 158.04 57.3019C158.208 57.0498 158.418 56.8398 158.67 56.6297C158.922 56.4617 159.216 56.3356 159.552 56.2516C159.888 56.1676 160.224 56.1256 160.602 56.1676C160.896 56.2096 161.148 56.2516 161.358 56.2936C161.569 56.3777 161.737 56.4197 161.905 56.4617C162.073 56.5457 162.241 56.6297 162.367 56.6717V57.848Z" fill="white"/>
<path d="M165.14 56.3357L163.375 64.6956H162.325L164.09 56.3357H165.14ZM165.77 54.2353C165.728 54.4453 165.644 54.6133 165.476 54.6974C165.308 54.7814 165.14 54.8234 164.972 54.8234C164.804 54.7814 164.636 54.7394 164.51 54.6133C164.384 54.4873 164.342 54.3613 164.384 54.1512C164.426 53.9412 164.51 53.7732 164.678 53.6891C164.846 53.6051 165.014 53.5631 165.182 53.5631C165.35 53.5631 165.518 53.6471 165.602 53.7732C165.728 53.8572 165.77 54.0252 165.77 54.2353Z" fill="white"/>
<path d="M172.659 56.3357L170.895 64.7376H169.761L170.559 61.3348C170.349 61.9649 170.097 62.5531 169.761 63.0572C169.635 63.2672 169.467 63.4773 169.299 63.6873C169.131 63.8974 168.963 64.0654 168.752 64.2334C168.542 64.4015 168.332 64.5275 168.08 64.6535C167.828 64.7376 167.618 64.8216 167.324 64.8216C166.778 64.8636 166.358 64.6955 166.064 64.4015C165.77 64.1074 165.518 63.7293 165.392 63.3092C165.266 62.8471 165.182 62.385 165.182 61.8809C165.182 61.3768 165.224 60.9567 165.308 60.5786C165.392 59.9905 165.56 59.4444 165.812 58.9402C166.064 58.3941 166.316 57.932 166.694 57.5539C167.03 57.1338 167.45 56.8398 167.87 56.5877C168.29 56.3356 168.794 56.2096 169.299 56.1676C169.635 56.1676 169.971 56.2096 170.223 56.2936C170.475 56.4197 170.685 56.5037 170.895 56.6717C171.063 56.7978 171.231 56.9658 171.399 57.2178C171.399 57.1338 171.441 57.0498 171.441 56.9658C171.441 56.8818 171.483 56.8398 171.483 56.7557C171.525 56.6717 171.525 56.6297 171.525 56.5877C171.609 56.4197 171.777 56.3357 171.987 56.3357H172.659ZM171.231 58.016C171.105 57.806 170.979 57.5959 170.853 57.4699C170.727 57.3439 170.559 57.2178 170.307 57.1338C170.097 57.0498 169.803 57.0078 169.509 57.0078C169.089 57.0498 168.668 57.1758 168.332 57.4279C167.996 57.6799 167.702 57.974 167.45 58.3101C167.198 58.6462 166.988 59.0243 166.862 59.4444C166.694 59.8645 166.61 60.2425 166.526 60.6206C166.442 61.0407 166.4 61.4188 166.442 61.7969C166.442 62.175 166.484 62.5111 166.568 62.8051C166.652 63.0992 166.778 63.3512 166.946 63.5193C167.114 63.6873 167.324 63.8134 167.534 63.8554C167.786 63.8974 168.038 63.8134 168.29 63.6453C168.542 63.4773 168.794 63.2672 169.005 62.9732C169.257 62.6791 169.467 62.343 169.677 61.9649C169.887 61.5868 170.097 61.2087 170.265 60.7887C170.433 60.3686 170.601 59.9905 170.727 59.5704C170.853 59.1503 170.979 58.8142 171.063 58.4781L171.231 58.016Z" fill="white"/>
</svg>
