<svg width="36" height="24" viewBox="0 0 36 24" fill="none" xmlns="http://www.w3.org/2000/svg">
<g clip-path="url(#clip0_7_1555)">
<path fill-rule="evenodd" clip-rule="evenodd" d="M17.4 7C17.4 7.28 17.328 7.55 17.208 7.79C19.5192 8.18933 21.6101 9.20796 23.1615 10.6904C24.7129 12.1728 25.6396 14.0376 25.8 16H4.2C4.36042 14.0376 5.28707 12.1728 6.83847 10.6904C8.38987 9.20796 10.4808 8.18933 12.792 7.79C12.6349 7.48556 12.5711 7.15337 12.6062 6.82328C12.6414 6.49318 12.7744 6.17554 12.9933 5.8989C13.2122 5.62226 13.5102 5.39528 13.8605 5.23838C14.2108 5.08148 14.6023 4.99956 15 5C15.6365 5 16.247 5.21072 16.6971 5.58579C17.1471 5.96086 17.4 6.46957 17.4 7ZM27 19V17H3V19H27Z" fill="white"/>
</g>
<defs>
<clipPath id="clip0_7_1555">
<rect width="36" height="24" fill="white"/>
</clipPath>
</defs>
</svg>
