<svg width="18" height="18" viewBox="0 0 18 18" fill="none" xmlns="http://www.w3.org/2000/svg">
<g clip-path="url(#clip0_7_1083)">
<path fill-rule="evenodd" clip-rule="evenodd" d="M8.2425 6C8.26018 6.3059 8.2152 6.61219 8.11031 6.90008C8.00542 7.18798 7.84282 7.45142 7.63251 7.67425C7.42219 7.89708 7.16857 8.0746 6.8872 8.19593C6.60584 8.31726 6.30266 8.37985 5.99625 8.37985C5.68984 8.37985 5.38666 8.31726 5.10529 8.19593C4.82393 8.0746 4.57031 7.89708 4.35999 7.67425C4.14968 7.45142 3.98708 7.18798 3.88219 6.90008C3.7773 6.61219 3.73232 6.3059 3.75 6C3.75 5.40326 3.98705 4.83097 4.40901 4.40901C4.83097 3.98705 5.40326 3.75 6 3.75C6.59674 3.75 7.16903 3.98705 7.59099 4.40901C8.01295 4.83097 8.25 5.40326 8.25 6H8.2425ZM14.2425 6C14.2602 6.3059 14.2152 6.61219 14.1103 6.90008C14.0054 7.18798 13.8428 7.45142 13.6325 7.67425C13.4222 7.89708 13.1686 8.0746 12.8872 8.19593C12.6058 8.31726 12.3027 8.37985 11.9963 8.37985C11.6898 8.37985 11.3867 8.31726 11.1053 8.19593C10.8239 8.0746 10.5703 7.89708 10.36 7.67425C10.1497 7.45142 9.98709 7.18798 9.88219 6.90008C9.7773 6.61219 9.73232 6.3059 9.75 6C9.75 5.40326 9.98705 4.83097 10.409 4.40901C10.831 3.98705 11.4033 3.75 12 3.75C12.5967 3.75 13.169 3.98705 13.591 4.40901C14.0129 4.83097 14.25 5.40326 14.25 6H14.2425ZM6 9.75C4.2525 9.75 0.75 10.6275 0.75 12.375V14.25H11.25V12.375C11.25 10.6275 7.7475 9.75 6 9.75ZM11.2725 9.7875C11.535 9.765 11.7825 9.75 12 9.75C13.7475 9.75 17.25 10.6275 17.25 12.375V14.25H12.75V12.375C12.75 11.265 12.1425 10.4175 11.2725 9.7875Z" fill="#BEBEBE"/>
</g>
<defs>
<clipPath id="clip0_7_1083">
<rect width="18" height="18" fill="white"/>
</clipPath>
</defs>
</svg>
