<svg width="27" height="24" viewBox="0 0 27 24" fill="none" xmlns="http://www.w3.org/2000/svg">
<g clip-path="url(#clip0_7_1058)">
<path d="M25.4266 14.86L27.3333 13.43L25.4266 12L20.6666 15.57L9.23996 7L14 3.43L12.0933 2L10.1866 3.43L8.27996 2L5.42663 4.14L3.51996 2.71L1.61329 4.14L3.51996 5.57L0.666626 7.71L2.57329 9.14L0.666626 10.57L2.57329 12L7.33329 8.43L18.76 17L14 20.57L15.9066 22L17.8133 20.57L19.72 22L22.5733 19.86L24.48 21.29L26.3866 19.86L24.48 18.43L27.3333 16.29L25.4266 14.86Z" fill="white"/>
</g>
<defs>
<clipPath id="clip0_7_1058">
<rect width="27" height="24" fill="white"/>
</clipPath>
</defs>
</svg>
