<svg width="18" height="18" viewBox="0 0 18 18" fill="none" xmlns="http://www.w3.org/2000/svg">
<g clip-path="url(#clip0_7_1098)">
<path fill-rule="evenodd" clip-rule="evenodd" d="M4.5 2.25H9.75C10.9435 2.25 12.0881 2.72411 12.932 3.56802C13.7759 4.41193 14.25 5.55653 14.25 6.75C14.25 7.94347 13.7759 9.08807 12.932 9.93198C12.0881 10.7759 10.9435 11.25 9.75 11.25H7.5V15.75H4.5V2.25ZM7.5 8.25H9.9C10.2978 8.25 10.6794 8.09196 10.9607 7.81066C11.242 7.52936 11.4 7.14782 11.4 6.75C11.4 6.35218 11.242 5.97064 10.9607 5.68934C10.6794 5.40804 10.2978 5.25 9.9 5.25H7.5V8.25Z" fill="#BEBEBE"/>
</g>
<defs>
<clipPath id="clip0_7_1098">
<rect width="18" height="18" fill="white"/>
</clipPath>
</defs>
</svg>
