<svg width="25" height="24" viewBox="0 0 25 24" fill="none" xmlns="http://www.w3.org/2000/svg">
<g clip-path="url(#clip0_7_1043)">
<path fill-rule="evenodd" clip-rule="evenodd" d="M5 3H14.3333C16.4551 3 18.4899 3.63214 19.9902 4.75736C21.4905 5.88258 22.3333 7.4087 22.3333 9C22.3333 10.5913 21.4905 12.1174 19.9902 13.2426C18.4899 14.3679 16.4551 15 14.3333 15H10.3333V21H5V3ZM10.3333 11H14.6C15.3072 11 15.9855 10.7893 16.4856 10.4142C16.9857 10.0391 17.2667 9.53043 17.2667 9C17.2667 8.46957 16.9857 7.96086 16.4856 7.58579C15.9855 7.21071 15.3072 7 14.6 7H10.3333V11Z" fill="white"/>
</g>
<defs>
<clipPath id="clip0_7_1043">
<rect width="25" height="24" fill="white"/>
</clipPath>
</defs>
</svg>
