<svg width="26" height="24" viewBox="0 0 26 24" fill="none" xmlns="http://www.w3.org/2000/svg">
<g clip-path="url(#clip0_7_1053)">
<path fill-rule="evenodd" clip-rule="evenodd" d="M23.8667 10.15C21.7467 11.74 18.88 12.24 16.84 11.53L14.88 13L24.0534 19.88L22.1734 21.29L13 14.41L3.81337 21.28L1.93337 19.87L14.9467 10.11C14 8.57996 14.6667 6.42996 16.7867 4.83996C19.3467 2.92996 23 2.56996 24.9467 4.02996C26.9067 5.49996 26.4134 8.23996 23.8667 10.15ZM11.5734 10.51L7.80003 13.34L2.21337 9.15996C1.71749 8.78846 1.32411 8.34731 1.05571 7.86172C0.787317 7.37613 0.64917 6.85562 0.64917 6.32996C0.64917 5.8043 0.787317 5.28379 1.05571 4.7982C1.32411 4.3126 1.71749 3.87145 2.21337 3.49996L11.5734 10.51Z" fill="white"/>
</g>
<defs>
<clipPath id="clip0_7_1053">
<rect width="26" height="24" fill="white"/>
</clipPath>
</defs>
</svg>
