<svg width="175" height="96" viewBox="0 0 175 96" fill="none" xmlns="http://www.w3.org/2000/svg">
<path d="M172.672 91.7207L166.996 84.4316H163.176V85.0017C164.34 85.0017 164.485 85.1646 164.485 86.2641V92.3723C164.485 94.5712 164.085 94.7748 163.139 94.7748V95.3449H166.668V94.7748C165.541 94.7748 165.177 94.4898 165.177 93.2274V86.0605L172.781 95.6707H173.363V86.5491C173.363 85.2053 174.018 85.0425 174.636 85.0425V84.4724H171.107V85.0425C171.98 85.0425 172.672 85.2461 172.672 86.5084V91.7207Z" fill="#747474"/>
<path d="M155.936 84.1465C153.316 84.1465 150.624 86.0604 150.624 89.8882C150.624 93.7159 153.316 95.6298 155.936 95.6298C158.555 95.6298 161.247 93.7159 161.247 89.8882C161.247 86.0604 158.555 84.1465 155.936 84.1465ZM155.936 95.1412C154.116 95.1412 153.28 93.3087 153.28 89.9289C153.28 86.549 154.116 84.7166 155.936 84.7166C157.755 84.7166 158.592 86.549 158.592 89.9289C158.592 93.3087 157.755 95.1412 155.936 95.1412Z" fill="#747474"/>
<path d="M143.056 93.8788C143.056 94.6525 142.838 94.7339 141.819 94.7339V95.304H146.694V94.7339C145.676 94.7339 145.457 94.6525 145.457 93.8788V85.531C145.457 85.1237 145.639 84.9609 145.967 84.9609C146.804 84.9609 148.222 85.816 149.023 87.4856L149.387 87.3227L148.805 84.1057H148.441C148.186 84.2686 147.822 84.3908 147.458 84.3908H141.019C140.837 84.3908 140.691 84.35 140.509 84.3093C140.327 84.2279 140.182 84.1872 140.073 84.1057H139.709L139.127 87.3227L139.491 87.4856C140.291 85.7753 141.71 84.9609 142.547 84.9609C142.874 84.9609 143.056 85.1237 143.056 85.531V93.8788ZM131.341 93.8788C131.341 94.6525 131.123 94.7339 130.104 94.7339V95.304H139.309L140.036 92.1278H139.6C138.254 94.3267 137.38 94.7339 135.052 94.7339C133.96 94.7339 133.779 94.5303 133.779 93.9602V85.8567C133.779 85.083 133.997 85.0016 135.016 85.0016V84.4315H130.14V85.0016C131.159 85.0016 131.377 85.083 131.377 85.8567V93.8788" fill="#747474"/>
<path d="M127.121 93.6751L125.52 90.8654C125.12 90.1731 124.756 89.9288 124.246 89.8881V89.8474C125.811 89.7252 126.757 88.8293 126.757 87.4855C126.757 86.101 125.665 84.4722 122.5 84.4722H117.625V85.0423C118.643 85.0423 118.862 85.1237 118.862 85.8974V93.9195C118.862 94.6932 118.643 94.7746 117.625 94.7746V95.3447H122.5V94.7746C121.481 94.7746 121.263 94.6932 121.263 93.9195V90.0917C122.282 90.0917 122.646 90.2546 122.9 90.7839L125.156 95.3447H128.503V94.7746C127.994 94.7746 127.703 94.6932 127.121 93.6751ZM122.136 89.5623H121.299V85.0015H121.845C123.846 85.0015 124.355 86.3046 124.355 87.2819C124.355 88.9922 123.3 89.5623 122.136 89.5623Z" fill="#747474"/>
<path d="M114.932 93.5938L110.821 84.7573C110.639 84.4315 110.567 84.3094 110.494 84.3094C110.348 84.3094 110.057 85.1645 108.857 86.0604C109.038 86.1418 109.148 86.3454 109.148 86.549C109.148 86.6712 109.111 86.7934 109.002 87.0784L106.528 92.8201C105.91 94.286 105.509 94.7747 104.6 94.7747V95.3448H108.129V94.7747C107.183 94.7747 106.819 94.4896 106.819 94.0417C106.819 93.7974 106.928 93.3495 107.401 92.535H111.84C112.458 93.5531 112.568 94.1232 112.568 94.286C112.568 94.6525 112.277 94.734 111.258 94.734V95.3041H116.533V94.734C115.624 94.7747 115.405 94.5304 114.932 93.5938ZM107.62 91.8835L109.548 87.3227L111.549 91.8835H107.62ZM102.599 91.5984C101.762 93.5531 100.452 95.0597 98.8514 95.0597C97.3597 95.0597 95.7225 93.7974 95.7225 89.8882C95.7225 86.3047 97.0322 84.7166 98.9241 84.7166C100.707 84.7166 101.798 86.0604 102.562 87.6892H102.963V84.2686H102.635C102.49 84.5537 102.162 84.7166 101.907 84.7166C101.325 84.7166 100.125 84.1465 98.7058 84.1465C95.2495 84.1465 93.0665 86.7119 93.0665 90.0918C93.0665 93.1051 95.2859 95.6298 98.4148 95.6298C100.198 95.6298 101.471 94.8969 101.907 94.8969C102.235 94.8969 102.49 95.1412 102.635 95.6298H102.963V91.5984H102.599Z" fill="#747474"/>
<path d="M72.5832 95.3447H81.0603L82.079 92.0463H81.6788C80.2599 94.1638 79.3867 94.8154 78.0042 94.8154H75.6029L81.7516 84.7165V84.4315H73.42L72.5104 87.4856H72.8378C73.9657 85.816 75.1299 85.0016 76.4397 85.0016H78.659L72.5468 94.9375V95.3447M65.052 93.8788C65.052 94.6525 64.8337 94.7339 63.815 94.7339V95.304H68.6902V94.7339C67.6715 94.7339 67.4532 94.6525 67.4532 93.8788V85.531C67.4532 85.1237 67.6351 84.9609 67.9626 84.9609C68.7994 84.9609 70.2183 85.816 71.0187 87.4856L71.3825 87.3227L70.8004 84.1057H70.4002C70.1455 84.2686 69.7817 84.3908 69.4179 84.3908H62.9782C62.7963 84.3908 62.6507 84.35 62.4688 84.3093C62.2869 84.2279 62.1414 84.1872 62.0322 84.1057H61.632L61.0499 87.3227L61.4137 87.4856C62.2141 85.7753 63.6331 84.9609 64.4699 84.9609C64.7973 84.9609 64.9792 85.1237 64.9792 85.531V93.8788M56.2474 93.8788C56.2474 94.6525 56.0291 94.7339 55.0104 94.7339V95.304H59.8857V94.7339C58.8669 94.7339 58.6486 94.6525 58.6486 93.8788V85.8567C58.6486 85.083 58.8669 85.0016 59.8857 85.0016V84.4315H55.0104V85.0016C56.0291 85.0016 56.2474 85.083 56.2474 85.8567V93.8788Z" fill="#747474"/>
<path d="M52.2817 93.6752L50.6809 90.8654C50.2807 90.1732 49.9168 89.9288 49.4075 89.8881V89.8474C50.9719 89.7252 51.9179 88.8294 51.9179 87.4856C51.9179 86.101 50.8264 84.4722 47.6611 84.4722H42.7859V85.0423C43.8046 85.0423 44.0229 85.1237 44.0229 85.8974V93.9195C44.0229 94.6932 43.8046 94.7746 42.7859 94.7746V95.3447H47.6611V94.7746C46.6424 94.7746 46.4241 94.6932 46.4241 93.9195V90.0917C47.4428 90.0917 47.8067 90.2546 48.0613 90.784L50.317 95.3447H53.6642V94.7746C53.1549 94.7746 52.8638 94.6932 52.2817 93.6752ZM47.2973 89.5623H46.4605V85.0016H47.0062C49.0073 85.0016 49.5166 86.3047 49.5166 87.282C49.5166 88.9922 48.4615 89.5623 47.2973 89.5623ZM27.3233 93.8788C27.3233 94.6525 27.105 94.7339 26.0863 94.7339V95.304H35.0728L35.8368 92.1278H35.4002C34.3087 94.1638 33.2173 94.7339 31.2526 94.7339C29.9428 94.7339 29.7609 94.5303 29.7609 94.0824V89.9696H30.4158C32.1622 89.9696 32.9626 90.4989 33.2536 92.0463H33.6538V87.2005H33.2536C32.8534 88.8294 32.1985 89.3995 30.4158 89.3995H29.7609V85.6938C29.7609 85.083 29.9428 85.0016 30.6341 85.0016C32.817 85.0016 33.8721 85.6938 35.2547 87.4041H35.6549L34.6726 84.4315H26.0863V85.0016C27.105 85.0016 27.3233 85.083 27.3233 85.8567V93.8788ZM20.4106 93.8788C20.4106 94.6525 20.1923 94.7339 19.1736 94.7339V95.304H24.0489V94.7339C23.0301 94.7339 22.8118 94.6525 22.8118 93.8788V85.8567C22.8118 85.083 23.0301 85.0016 24.0489 85.0016V84.4315H19.1736V85.0016C20.1923 85.0016 20.4106 85.083 20.4106 85.8567V89.1959H15.4262V85.8567C15.4262 85.083 15.6445 85.0016 16.6632 85.0016V84.4315H11.7879V85.0016C12.8067 85.0016 13.0249 85.083 13.0249 85.8567V93.8788C13.0249 94.6525 12.8067 94.7339 11.7879 94.7339V95.304H16.6632V94.7339C15.6445 94.7339 15.4262 94.6525 15.4262 93.8788V89.9696H20.3742V93.8788M3.9657 93.8788C3.9657 94.6525 3.7474 94.7339 2.72869 94.7339V95.304H7.60395V94.7339C6.58524 94.7339 6.36694 94.6525 6.36694 93.8788V85.531C6.36694 85.1237 6.54886 84.9609 6.8763 84.9609C7.7131 84.9609 9.13202 85.816 9.93243 87.4856L10.2963 87.3227L9.71414 84.1057H9.31393C9.05925 84.2686 8.69543 84.3908 8.3316 84.3908H1.96466C1.78274 84.3908 1.63721 84.35 1.4553 84.3093C1.27339 84.2279 1.12786 84.1872 1.01871 84.1057H0.582121L0 87.3634L0.363825 87.5263C1.16424 85.816 2.58316 85.0016 3.41996 85.0016C3.7474 85.0016 3.92931 85.1645 3.92931 85.5717V93.8788M85.2079 90.6618H88.4823L89.8285 88.4629H86.5904L85.2079 90.6618Z" fill="#747474"/>
<path d="M78.3864 68.7123C78.3864 68.3284 79.2439 67.3686 79.4726 67.3686C79.5869 67.3686 80.4444 68.3284 80.4444 68.7123C80.4444 68.8402 79.5869 69.9279 79.4726 69.9279C79.2439 69.9279 78.3864 68.8402 78.3864 68.7123ZM95.1359 68.7123C95.1359 68.3284 95.9934 67.3686 96.2221 67.3686C96.3364 67.3686 97.1939 68.3284 97.1939 68.7123C97.1939 68.8402 96.3364 69.9279 96.2221 69.9279C95.9934 69.9279 95.1359 68.8402 95.1359 68.7123ZM86.6754 68.7123C86.6754 68.3284 87.5329 67.3686 87.7616 67.3686C87.8759 67.3686 88.7334 68.3284 88.7334 68.7123C88.7334 68.8402 87.8759 69.9279 87.7616 69.9279C87.5901 69.9279 86.6754 68.8402 86.6754 68.7123ZM77.3003 70.6318H81.5305C81.8735 70.6318 82.045 70.3758 82.045 70.0559V67.3686C82.045 66.9848 81.8164 66.7928 81.5305 66.7928C80.6731 66.7928 78.6151 66.9208 77.3003 67.0487C77.0716 67.0487 76.843 67.1767 76.843 67.5606V70.2479C76.843 70.5038 77.0716 70.6318 77.3003 70.6318ZM74.4992 68.9682C74.4992 68.7123 75.128 68.0085 75.2423 68.0085C75.3567 68.0085 75.9855 68.7123 75.9855 68.9682C75.9855 69.0962 75.3567 69.9279 75.2423 69.9279C75.128 69.9279 74.4992 69.0962 74.4992 68.9682ZM82.7882 68.7123C82.7882 68.4564 83.417 67.7525 83.5313 67.7525C83.6457 67.7525 84.2745 68.4564 84.2745 68.7123C84.2745 68.8402 83.6457 69.672 83.5313 69.672C83.4742 69.672 82.7882 68.8402 82.7882 68.7123ZM89.8195 70.7597C90.1625 70.7597 90.334 70.5038 90.334 70.1839V67.3047C90.334 66.9208 90.1054 66.7288 89.8195 66.7288H85.7036C85.3606 66.7288 85.1891 66.9848 85.1891 67.3047V70.1839C85.1891 70.5678 85.4178 70.7597 85.7036 70.7597H89.8195ZM98.28 70.6318C98.5087 70.6318 98.7374 70.5038 98.7374 70.1199V67.4326C98.7374 67.0487 98.5087 66.9208 98.28 66.9208C96.9652 66.7928 94.9073 66.6648 94.0498 66.6648C93.7068 66.6648 93.5353 66.9208 93.5353 67.2407V69.9279C93.5353 70.3118 93.764 70.5038 94.0498 70.5038H98.28V70.6318ZM101.081 68.9682C101.081 69.0962 100.452 69.9279 100.338 69.9279C100.224 69.9279 99.5948 69.0962 99.5948 68.9682C99.5948 68.7123 100.224 68.0085 100.338 68.0085C100.452 68.0085 101.081 68.7123 101.081 68.9682ZM92.735 68.7123C92.735 68.8402 92.1062 69.672 91.9918 69.672C91.8775 69.672 91.2487 68.8402 91.2487 68.7123C91.2487 68.4564 91.8775 67.7525 91.9918 67.7525C92.1062 67.7525 92.735 68.4564 92.735 68.7123ZM81.702 12.5357H81.8164C82.3309 14.839 84.7318 15.095 85.3035 17.7182L85.1891 17.8462C83.9887 15.9267 82.388 15.6708 81.702 14.7111C81.4162 14.2632 81.4162 13.6234 81.702 12.5357ZM85.7036 43.5672C85.7036 47.3421 82.9025 49.0057 79.9871 49.0057C83.76 44.3989 80.8446 37.7448 84.5031 33.394C84.2173 37.2329 85.7036 40.8799 85.7036 43.5672ZM103.654 53.8044C107.655 53.8044 109.713 51.501 109.713 47.982C109.713 46.7663 109.37 45.9345 109.37 45.9345C108.284 46.8943 106.969 47.1502 106.226 47.1502C104.625 47.1502 102.453 46.0625 102.453 43.1833C102.453 39.4083 105.997 37.4888 105.997 33.266C105.997 32.0503 105.54 31.6024 105.54 31.6024C107.141 29.1711 107.712 26.8677 107.712 25.0762C107.712 21.6852 106.112 19.5098 106.112 19.5098L107.827 20.4695C107.084 17.2064 105.426 15.031 105.426 15.031C105.426 15.031 106.283 15.5428 106.741 15.2869C105.883 14.7751 104.568 12.9835 104.568 9.72044C104.568 6.45733 103.939 4.66582 98.28 3.57812C97.6512 2.10652 96.1078 0.570942 95.3646 0.059082C94.0498 0.762889 92.1062 1.65864 91.4774 2.23449C91.4774 2.23449 89.8767 2.36245 89.1907 2.36245C88.2189 2.36245 87.4758 1.97856 87.0184 1.97856C85.7036 1.97856 84.8461 3.45015 84.8461 3.45015C84.8461 3.45015 82.045 3.45015 79.9871 3.96201C78.9009 4.21794 78.2721 5.17768 77.4718 7.22512L72.1554 10.4882C71.1836 11.0641 70.5548 11.448 70.5548 12.4077C70.5548 12.9196 70.8978 13.7513 71.5266 14.839C72.0411 18.486 72.6127 19.0619 73.3559 19.0619C73.5845 19.0619 73.9847 18.9339 73.9847 18.9339C74.2134 19.1898 74.7278 20.1496 74.8422 20.5335C73.9847 21.0453 72.8985 19.9576 71.5837 19.9576C70.8406 19.9576 69.6401 20.4695 69.6401 21.8771C69.6401 22.389 69.8688 22.4529 70.0974 22.4529C70.4404 22.4529 70.7263 22.325 71.5266 22.325C72.4984 22.325 73.2415 23.2847 74.785 23.2847C75.2995 23.2847 75.6425 23.1568 75.8712 23.2847C75.128 23.8606 74.6707 24.2445 74.8993 25.0762C75.2423 26.6758 76.5 28.4673 77.186 28.4673C77.7005 28.4673 78.6723 28.0834 78.6723 28.0834L78.0434 28.6592C73.6989 32.7541 74.6707 37.3609 74.6707 41.9676C74.6707 45.4866 73.8132 47.662 71.2979 47.662C69.6973 47.662 67.4107 46.5743 65.6957 44.143C65.467 44.8468 65.3527 45.9345 65.3527 46.9582C65.3527 51.1811 68.8398 53.9963 72.2697 53.9963C75.2995 53.9963 77.4718 53.0366 79.6441 51.1171C85.818 50.9891 87.7616 46.3824 87.7616 46.3824C90.677 51.1171 96.1078 50.7332 96.9652 50.7332C98.7945 52.9726 101.596 53.8044 103.654 53.8044ZM104.111 28.1474C104.111 33.202 98.28 33.8418 98.28 38.7685C98.28 40.688 98.7945 42.0316 98.5087 43.2473C98.5087 43.2473 99.7092 41.7757 99.8235 40.688C99.8235 44.4629 101.538 48.8137 105.997 48.8137C106.626 48.8137 107.598 48.6858 108.513 48.1099C108.513 48.1099 108.284 51.629 104.74 51.629C100.224 51.629 96.1078 47.4061 96.1078 39.5363C96.1078 38.0647 96.3364 36.4011 97.0796 35.1855C97.0796 35.1855 94.9073 36.5291 94.6786 40.7519C94.6786 40.7519 93.8211 39.2803 93.8211 37.4888C93.7068 31.4105 100.338 33.5859 104.111 28.1474ZM99.0232 5.30564C103.025 6.26538 102.51 9.20858 103.253 11.256C101.538 8.82468 99.2519 7.2891 99.2519 7.2891C99.4805 6.13742 99.0232 5.30564 99.0232 5.30564ZM74.785 17.3983C75.0137 17.2704 75.7568 17.1424 75.7568 17.1424C75.9855 17.6543 75.9855 18.486 75.8712 19.1898C74.8993 19.1898 74.6135 18.1021 74.785 17.3983ZM77.0716 21.0453C76.6143 21.7491 76.3285 22.7089 75.0137 22.7089C73.6989 22.7089 72.6127 21.6212 71.7552 21.6212C71.2979 21.6212 71.1264 21.7491 70.8978 21.7491C70.6691 21.7491 70.5548 21.6212 70.5548 21.4932C70.5548 21.1093 71.0121 20.7894 71.6409 20.7894C72.2697 20.7894 72.8414 21.1733 73.8132 21.3652C75.2423 21.8771 76.0998 20.5335 76.6143 20.0216C77.2431 19.4458 77.8148 19.3178 78.3293 19.3178C79.4154 19.3178 80.1586 19.8937 80.1586 19.8937C79.6441 19.8937 78.4436 20.4695 77.5861 21.1093C77.3003 21.0453 77.186 20.9174 77.0716 21.0453ZM78.2721 22.5809C77.8148 23.0928 77.4146 23.0928 77.186 23.0928C76.9573 22.5169 77.186 21.6212 77.186 21.6212C77.6433 21.6212 78.2721 22.0051 78.2721 22.5809ZM71.3551 49.2616C76.4428 49.2616 76.3285 42.7354 76.3285 40.56C76.3285 30.7707 78.9009 28.3393 84.9605 25.2042C89.4766 22.7729 93.5925 21.8131 93.5925 16.9505C93.5925 15.2869 93.1351 13.4314 91.4202 13.4314C91.4202 13.4314 92.049 14.1352 92.049 15.3509C92.049 15.8628 91.9347 16.3106 91.706 16.9505C91.706 16.4386 91.5917 15.8628 91.2487 15.3509C90.7342 16.3106 90.7914 17.7822 90.5055 18.3581C90.5055 18.3581 90.2769 18.9339 88.7906 19.8297C88.7906 19.8297 88.5619 20.0856 89.3051 20.0856C89.3051 20.0856 91.1344 20.0856 91.8203 19.2538C91.3058 20.9174 90.6199 21.5572 89.648 21.5572C89.1336 21.5572 88.2189 21.4292 87.4758 21.4292C86.161 21.4292 83.1312 22.133 81.9879 24.4364C81.1304 26.036 78.6151 27.4436 77.7576 27.4436C77.0145 27.4436 75.9283 25.5241 75.9283 24.6284C75.9283 23.6686 77.4146 24.2445 78.6151 22.9648C80.5587 20.7894 81.3019 20.2775 83.3598 20.2775C83.3598 20.2775 84.5603 20.2775 83.4742 19.0619L80.1014 15.5428C79.6441 15.031 79.3583 14.839 78.9009 14.839C78.6723 14.839 78.2721 14.967 77.3003 15.9267C75.3567 16.1827 74.6135 16.5026 74.0419 16.8865C73.6989 17.1424 73.5274 17.3983 73.2987 17.3983C72.9557 17.3983 72.5556 15.4789 72.5556 15.095C72.5556 14.1352 73.5274 13.4954 73.5274 12.9196C73.5274 12.5357 73.1844 12.4077 73.1844 12.4077L71.7552 13.1115C71.7552 13.1115 71.0121 12.1518 71.8696 11.6399C71.8696 11.6399 74.0419 10.2963 78.1578 8.12087C78.3864 9.46451 78.6723 9.72044 79.6441 9.59247L79.1868 9.72044L78.9581 10.1043C79.3011 10.2323 79.9299 10.1043 80.5587 9.8484C81.0732 9.59247 81.7592 9.59247 81.8735 9.46451C81.9879 9.33654 82.3309 8.95265 82.3309 8.88866C82.1022 8.88866 81.4734 9.01663 81.0161 9.14459C81.6449 8.63273 81.9879 8.31282 81.9879 8.05689C81.9879 7.92893 81.8735 7.80096 81.8735 7.80096C81.5305 7.80096 81.359 8.05689 81.0161 7.92893C80.7874 7.80096 80.5587 7.54503 80.5587 7.22512C80.5587 6.96919 80.7874 6.71326 81.5305 6.71326H82.045C82.045 6.2014 80.9589 6.00945 80.5587 6.00945C80.0442 6.00945 79.2439 6.26538 78.6151 6.58529C78.6151 6.58529 78.7294 5.62556 79.7012 5.1137C80.2157 4.85777 83.074 4.53786 85.7608 4.53786C89.6481 4.53786 92.5635 8.31282 93.1351 8.31282C93.3638 8.31282 93.5925 8.05689 93.2495 7.80096C91.8203 6.71326 90.9629 5.88149 90.9629 4.79379C90.9629 4.40989 90.9629 2.10652 95.4218 1.27475C97.3654 3.06626 97.9942 4.40989 97.9942 5.62556C97.9942 7.673 95.9363 7.92893 95.7076 8.7607C100.795 9.14459 104.568 16.6305 104.568 20.4055C104.568 27.1877 98.8517 29.9389 95.2503 30.8347C100.452 26.4838 102.396 22.133 102.396 19.1259C102.396 14.1352 98.3944 11.256 97.4226 10.6802C99.7092 13.4954 100.224 16.3746 100.224 18.55C100.224 22.7729 97.8227 24.8203 97.8227 24.8203C98.2801 23.8606 98.3372 23.0288 98.3372 22.261C98.3372 21.6852 98.2229 21.1733 98.2229 21.1733C96.1649 26.6118 91.4202 30.3868 91.0772 34.9935C90.7342 33.9058 90.6199 32.8181 90.6199 31.8584C90.6199 27.9554 92.7922 25.5881 92.7922 25.5881C88.5619 28.8512 87.5901 32.6262 87.5901 35.5054C87.5901 38.3846 88.6762 40.56 88.6762 40.56C88.4476 39.4723 88.5619 37.6808 88.7906 36.2092C89.2479 40.3041 91.0772 45.4227 96.1649 48.6858C87.3043 48.6858 83.6457 36.849 87.3043 29.2991C81.1304 31.0906 80.3872 38.2566 80.2729 42.3515C79.8156 40.1761 79.7584 38.4486 79.7584 37.1689C79.7584 29.8109 85.2463 27.8275 89.3622 25.78C95.4218 22.7729 97.8799 20.3415 97.8799 15.9907C97.8799 11.384 93.0208 8.50477 89.4194 9.33654L90.7342 10.8081C90.9629 11.0641 91.2487 11.32 91.2487 11.32C95.0216 13.4954 95.5933 15.9267 95.5933 17.3983C95.5933 21.3013 91.706 23.3487 88.9049 24.6923C79.8156 29.0431 78.2149 30.9626 78.2149 37.2969C78.2149 41.9036 79.4154 49.1336 75.0708 49.7735C75.4138 50.3493 76.9001 50.6052 76.9001 50.6052C75.5853 51.8209 74.2134 52.2048 72.5556 52.2048C71.0692 52.2048 68.0395 51.6929 67.1248 48.1099C68.3253 48.4938 69.5258 49.2616 71.3551 49.2616ZM95.0216 7.48105L95.3646 7.73698C95.3646 7.73698 97.3082 6.77724 97.3082 5.17768C97.3082 5.17768 97.3082 4.34591 96.8509 3.83405C96.6222 3.83405 96.6222 4.34591 96.6222 4.53786C96.6222 5.04972 96.2793 5.36963 95.7648 5.36963C95.3074 5.36963 94.5643 4.85777 94.5643 4.026C94.5643 3.19422 94.9073 2.81033 94.9073 2.5544C94.9073 2.5544 94.9073 2.42643 94.7929 2.42643C93.078 3.13024 92.9636 4.026 92.9636 4.60184C92.9636 5.56157 93.3066 6.39335 95.0216 7.48105ZM74.1562 12.4077C74.2705 12.6636 74.6135 12.9196 74.785 12.9196C75.2423 12.4077 75.6425 11.8319 75.6425 11.256C75.128 11.32 74.1562 11.5759 74.1562 12.4077ZM109.313 52.7167L108.97 52.5887C108.513 53.2925 107.026 54.8921 104.74 54.8921L104.625 55.148C105.597 56.2357 105.369 58.667 104.168 58.667C103.425 58.667 103.082 57.9632 102.968 57.3234L102.739 57.1954C102.396 57.4514 101.538 58.1552 101.31 58.4111C101.31 59.1149 101.424 60.0746 101.538 60.7145H101.767C101.996 60.2026 102.396 60.1386 102.625 60.1386C103.139 60.1386 103.596 60.6505 103.596 61.3543C103.596 62.57 102.853 63.6577 101.31 63.6577C99.7092 63.6577 98.28 62.8259 98.28 60.8424C98.28 59.8827 98.7374 58.795 99.8807 58.1552V57.8992C99.0232 57.1954 98.28 55.9798 98.0514 55.3399H97.8227C97.4797 55.8518 96.3936 56.9395 95.4218 57.1315V57.3874C96.2793 58.3471 96.3936 59.3069 96.3936 59.9467C96.3936 61.5462 95.1931 62.506 92.735 62.506C90.9057 62.506 89.0764 61.9301 89.0764 59.8187C89.0764 58.731 89.7052 58.1552 90.5055 58.1552C91.02 58.1552 91.706 58.4111 92.1062 59.1149H92.3348C92.7922 58.5391 92.9637 58.1552 93.764 57.4514V57.1954C93.421 56.9395 92.9065 56.2357 92.3348 55.4039H92.1062C91.363 56.3637 90.7914 56.4916 90.1625 56.4916C89.7052 56.4916 89.0764 56.2357 89.0764 55.4039C89.0764 54.3162 90.2769 53.8044 91.2487 53.4844V53.2285C89.648 52.5247 88.1046 50.5413 87.7616 49.3256H87.5329C87.1899 50.5413 85.7036 52.4607 84.0458 53.2285V53.4844C85.0176 53.8683 86.2181 54.3162 86.2181 55.4039C86.2181 56.2357 85.5893 56.4916 85.132 56.4916C84.5032 56.4916 83.9315 56.3637 83.1883 55.4039H82.9597C82.4452 56.2357 81.8735 57.0035 81.5305 57.1954V57.4514C82.2737 58.1552 82.5024 58.5391 82.9597 59.1149H83.1883C83.6457 58.4111 84.2745 58.1552 84.789 58.1552C85.5321 58.1552 86.2181 58.731 86.2181 59.8187C86.2181 61.8662 84.3888 62.506 82.5595 62.506C80.0442 62.506 78.9009 61.5462 78.9009 59.9467C78.9009 59.3708 79.0153 58.3471 79.8727 57.3874V57.1954C78.9009 56.9395 77.8148 55.8518 77.4718 55.4039H77.2431C77.0145 55.9798 76.2713 57.1954 75.4138 57.9632V58.2192C76.6143 58.795 77.0145 59.8827 77.0145 60.9064C77.0145 62.8259 75.5853 63.7216 73.9847 63.7216C72.4984 63.7216 71.6981 62.6339 71.6981 61.4183C71.6981 60.7145 72.1554 60.2026 72.6699 60.2026C72.8985 60.2026 73.2987 60.3306 73.5274 60.7785H73.756C73.8704 60.2026 73.9847 59.1789 73.9847 58.4751C73.756 58.2192 72.8985 57.5153 72.5556 57.2594L72.3269 57.3874C72.2126 57.9632 71.8696 58.731 71.1264 58.731C69.9259 58.731 69.6973 56.2997 70.6691 55.212L70.5548 54.956C68.2681 54.956 66.7818 53.3565 66.3245 52.6527L66.2673 52.7167L70.7834 64.3615C70.7834 64.3615 69.8116 64.8733 70.0403 65.7051C70.4976 67.3687 71.7552 69.608 71.7552 72.2313C71.7552 73.319 71.6409 73.447 71.6409 73.8949C71.6409 74.4067 71.9839 74.5987 72.3841 74.5987H103.082C103.539 74.5987 103.825 74.3427 103.825 73.8949C103.825 73.383 103.711 73.319 103.711 72.2313C103.711 69.5441 105.026 67.3687 105.426 65.7051C105.654 64.8733 104.683 64.3615 104.683 64.3615L109.313 52.7167ZM87.7616 71.8474C79.3011 71.8474 73.6989 71.7195 73.6989 71.7195L72.4984 66.6648C72.4984 66.6648 80.1586 65.4492 87.7616 65.4492C95.3074 65.4492 103.025 66.6648 103.025 66.6648L101.824 71.7195C101.824 71.7195 96.2221 71.8474 87.7616 71.8474Z" fill="#747474"/>
</svg>
