<svg width="24" height="24" viewBox="0 0 24 24" fill="none" xmlns="http://www.w3.org/2000/svg">
<g clip-path="url(#clip0_7_1406)">
<path d="M10 22L9.5 15H8V9C8 7.9 8.9 7 10 7H14C14.5304 7 15.0391 7.21071 15.4142 7.58579C15.7893 7.96086 16 8.46957 16 9V15H14.5L14 22H10ZM14 4C14 4.53043 13.7893 5.03914 13.4142 5.41421C13.0391 5.78929 12.5304 6 12 6C11.4696 6 10.9609 5.78929 10.5858 5.41421C10.2107 5.03914 10 4.53043 10 4C10 3.46957 10.2107 2.96086 10.5858 2.58579C10.9609 2.21071 11.4696 2 12 2C12.5304 2 13.0391 2.21071 13.4142 2.58579C13.7893 2.96086 14 3.46957 14 4ZM6 11H4V9L1 12L4 15V13H6V11ZM18 11H20V9L23 12L20 15V13H18V11Z" fill="#FFFEFE"/>
</g>
<defs>
<clipPath id="clip0_7_1406">
<rect width="24" height="24" fill="white"/>
</clipPath>
</defs>
</svg>
