<svg width="298" height="40" viewBox="0 0 298 40" fill="none" xmlns="http://www.w3.org/2000/svg">
<g clip-path="url(#clip0_7_2520)">
<path d="M71.3547 18.0142C63.5387 18.0142 61.0516 15.0822 62.8031 8.90051L65.3003 0H71.992L69.4428 8.90051C68.9117 10.819 69.1241 12.472 73.0021 12.472C76.88 12.472 78.1006 10.7667 78.6316 8.90051L81.2871 0H87.9708L85.2613 8.90051C83.3614 15.0822 79.1106 18.0142 71.3547 18.0142Z" fill="#D0A175"/>
<path d="M109.437 7.14293C108.831 9.06971 107.64 10.7582 106.03 11.972C104.421 13.1857 102.473 13.864 100.46 13.9118H93.077L91.8024 18.0162H85.269L90.6361 0.267456H104.765C108.853 0.267456 110.711 3.14514 109.437 7.14293ZM102.797 7.14293C103.168 5.91624 102.372 5.91624 101.683 5.91624H95.5742L94.8306 8.3676H100.939C101.347 8.44454 101.768 8.35994 102.115 8.13156C102.462 7.90319 102.707 7.54883 102.799 7.14293H102.797Z" fill="#D0A175"/>
<path d="M119.105 5.38334L118.573 7.03635H130.843L129.408 11.3539H117.183L116.652 13.0069H128.877L127.177 18.0162H108.375L114.112 0.267456H133.127L131.374 5.38334H119.105Z" fill="#D0A175"/>
<path d="M149.537 13.0049L150.866 18.0685H143.05L142.048 13.9641H138.17L136.743 18.0665H130.157L136.206 0.319763H150.335C154.425 0.319763 156.177 3.19745 154.744 7.19524C153.797 9.71901 151.938 11.7929 149.537 13.0049ZM140.084 8.36762H146.192C146.606 8.43826 147.031 8.35174 147.384 8.12494C147.738 7.89813 147.994 7.54732 148.104 7.14094C148.529 5.91425 147.733 5.91425 147.042 5.91425H140.933L140.084 8.36762Z" fill="#D0A175"/>
<path d="M179.651 14.8168H172.011L169.568 18.0142H162.231L176.42 0H186.441L187.026 18.0142H179.697L179.651 14.8168ZM179.651 10.2338V4.68956L175.454 10.2318L179.651 10.2338Z" fill="#D0A175"/>
<path d="M195.907 18.0142H189.215L196.225 0H202.971L195.907 18.0142Z" fill="#D0A175"/>
<path d="M218.533 12.8963L219.595 18.0122H211.681L210.879 13.8555H206.953L205.254 18.0122H198.562L205.731 0H220.072C224.215 0 225.862 2.93198 224.163 6.98205C223.084 9.58682 221.077 11.6952 218.533 12.8963ZM209.238 8.20673H215.451C215.877 8.27491 216.314 8.18906 216.684 7.96446C217.053 7.73986 217.331 7.39105 217.469 6.98004C218 5.75336 217.15 5.75336 216.467 5.75336H210.254L209.238 8.20673Z" fill="#D0A175"/>
<path d="M262.539 5.2084L262.008 6.86141H274.277L272.842 11.1789H260.617L260.086 12.832H272.311L270.612 17.8413H251.809L257.557 0.164917H276.52L274.808 5.2084H262.539Z" fill="#D0A175"/>
<path d="M285.56 17.8413H278.869L285.741 0.164917H292.453L285.56 17.8413Z" fill="#D0A175"/>
<path d="M298 0.164917H279.532L277.863 5.2084H295.986L298 0.164917Z" fill="#D0A175"/>
<path d="M244.699 8.72959C244.168 10.5958 242.947 12.3011 239.069 12.3011H238.933L236.929 17.6784H237.264C245.15 17.6784 249.434 14.9133 251.346 8.7316L254.034 0.164917H247.322L244.699 8.72959Z" fill="#D0A175"/>
<path d="M238.929 12.289H237.586L235.582 17.6764H236.925L238.929 12.289Z" fill="#D0A175"/>
<path fill-rule="evenodd" clip-rule="evenodd" d="M14.4938 26.0902V25.5895H26.761L27.256 19.3917H30.1599L31.7632 25.5895H38.6554C39.1008 25.577 39.5448 25.6451 39.9661 25.7906C40.2378 25.8913 40.4788 26.0611 40.6655 26.2833C40.8779 26.5507 40.99 26.8845 40.9822 27.2264C40.9911 27.5668 40.886 27.9003 40.6835 28.1736C40.5019 28.4026 40.2605 28.5767 39.9861 28.6763C39.5441 28.8213 39.0799 28.886 38.6153 28.8673H30.8293L25.5344 34.6509H22.4902L25.6527 28.8714H11.9024C10.4416 28.7653 8.97589 28.994 7.6162 29.5403C6.25651 30.0866 5.03848 30.9361 4.05433 32.0245C2.23473 34.4019 0.860959 37.0914 0 39.9618L42.9181 40C44.2628 40.0596 45.6035 39.8135 46.84 39.28C48.0765 38.7465 49.1769 37.9395 50.0588 36.9192C51.8783 34.5661 53.1765 31.8505 53.8666 28.9538L55.5801 23.1763C55.9049 22.0662 55.8847 20.8832 55.5224 19.7849C55.16 18.6866 54.4727 17.7252 53.552 17.0288C51.5508 15.4658 49.1064 14.5813 46.5716 14.5031H25.5545C25.0211 14.5282 24.4874 14.4602 23.9772 14.302C23.7087 14.2059 23.4735 14.0341 23.2999 13.8073C23.1153 13.5478 23.0203 13.235 23.0293 12.9164C23.0225 12.5981 23.1142 12.2854 23.2918 12.0215C23.4598 11.7871 23.6875 11.6023 23.9512 11.4866C24.4613 11.2865 25.0072 11.1947 25.5545 11.2171H49.5498C51.0057 11.3239 52.4667 11.0955 53.8213 10.5494C55.1759 10.0033 56.3882 9.15385 57.3658 8.06597C59.1713 5.6865 60.5296 2.99681 61.374 0.128714H26.5726C22.9283 0.119892 19.3712 1.24599 16.3918 3.35165C13.4124 5.45732 11.1576 8.43879 9.93841 11.8848L9.13676 14.1672C8.12182 16.6877 8.04287 19.4902 8.91431 22.0643C9.31653 23.0983 10.0198 23.9869 10.9325 24.6142C11.9965 25.2907 13.2388 25.6305 14.4978 25.5895C14.4978 25.5895 14.4978 25.5895 14.4978 25.6237C14.4978 25.6578 14.4938 25.7966 14.4938 26.0902Z" fill="#D0A175"/>
</g>
<defs>
<clipPath id="clip0_7_2520">
<rect width="298" height="40" fill="white"/>
</clipPath>
</defs>
</svg>
