<svg width="29" height="24" viewBox="0 0 29 24" fill="none" xmlns="http://www.w3.org/2000/svg">
<g clip-path="url(#clip0_7_1031)">
<path d="M12.0933 11.6399H12.1066C12.9802 11.2354 13.9866 11.0212 15.0133 11.0212C16.0399 11.0212 17.0464 11.2354 17.92 11.6399H17.9333C18.9466 12.0999 19.9866 12.1099 20.9866 11.6399L21.5333 11.4099L12.9733 4.99991C10.9066 3.44991 8.99996 2.98991 5.66663 2.99991V5.49991C8.09329 5.48991 9.51996 5.88991 11 6.99991L12.3333 7.99991L7.99996 11.2499C8.35996 11.3499 8.69329 11.4999 9.02663 11.6399C10.0266 12.1099 11.0933 12.1099 12.0933 11.6399Z" fill="white"/>
<path fill-rule="evenodd" clip-rule="evenodd" d="M28.3066 16.5C26.84 16.5 26.0266 16.13 25.4266 15.86H25.4133C24.9602 15.636 24.4294 15.5165 23.8866 15.5165C23.3439 15.5165 22.8131 15.636 22.36 15.86C21.4874 16.2667 20.4806 16.4823 19.4533 16.4823C18.426 16.4823 17.4192 16.2667 16.5466 15.86H16.5333C16.0802 15.636 15.5494 15.5165 15.0066 15.5165C14.4639 15.5165 13.9331 15.636 13.48 15.86C12.6074 16.2667 11.6006 16.4823 10.5733 16.4823C9.54599 16.4823 8.53916 16.2667 7.66663 15.86H7.65329C7.20018 15.636 6.66937 15.5165 6.12663 15.5165C5.58388 15.5165 5.05307 15.636 4.59996 15.86L4.55996 15.88C3.93329 16.15 3.11996 16.5 1.66663 16.5V14.5C2.41329 14.5 2.70663 14.37 3.19996 14.14C4.07249 13.7334 5.07932 13.5178 6.10663 13.5178C7.13393 13.5178 8.14076 13.7334 9.01329 14.14H9.02663C10.04 14.6 11.08 14.61 12.08 14.14C12.9525 13.7334 13.9593 13.5178 14.9866 13.5178C16.0139 13.5178 17.0208 13.7334 17.8933 14.14H17.9066C18.92 14.6 19.96 14.61 20.96 14.14C21.8325 13.7334 22.8393 13.5178 23.8666 13.5178C24.8939 13.5178 25.9008 13.7334 26.7733 14.14H26.7866C27.2666 14.36 27.5866 14.5 28.3066 14.5V16.5Z" fill="white"/>
<path d="M25.4266 20.36C26.0266 20.63 26.8533 21 28.3333 21V19C27.7822 19.0157 27.2407 18.8886 26.8 18.64C25.9274 18.2333 24.9206 18.0178 23.8933 18.0178C22.866 18.0178 21.8592 18.2333 20.9866 18.64C19.9866 19.11 18.9466 19.1 17.9333 18.64H17.92C17.0464 18.2355 16.0399 18.0213 15.0133 18.0213C13.9866 18.0213 12.9802 18.2355 12.1066 18.64H12.0933C11.0933 19.11 10.0266 19.11 9.02663 18.64C8.15303 18.2355 7.14662 18.0213 6.11996 18.0213C5.0933 18.0213 4.08689 18.2355 3.21329 18.64H3.19996C2.75918 18.8886 2.2177 19.0157 1.66663 19V21C3.13329 21 3.95996 20.64 4.57329 20.37L4.58663 20.36C5.0405 20.1326 5.5741 20.0112 6.11996 20.0112C6.66582 20.0112 7.19942 20.1326 7.65329 20.36C9.50663 21.19 11.6133 21.18 13.4666 20.36H13.48C13.9331 20.1359 14.4639 20.0165 15.0066 20.0165C15.5494 20.0165 16.0802 20.1359 16.5333 20.36H16.5466C18.3866 21.19 20.48 21.19 22.3333 20.37L22.36 20.36C22.8131 20.1359 23.3439 20.0165 23.8866 20.0165C24.4294 20.0165 24.9602 20.1359 25.4133 20.36H25.4266ZM24.3333 5.5C24.3333 6.16304 23.9821 6.79893 23.357 7.26777C22.7319 7.73661 21.884 8 21 8C20.1159 8 19.2681 7.73661 18.6429 7.26777C18.0178 6.79893 17.6666 6.16304 17.6666 5.5C17.6666 4.83696 18.0178 4.20107 18.6429 3.73223C19.2681 3.26339 20.1159 3 21 3C21.884 3 22.7319 3.26339 23.357 3.73223C23.9821 4.20107 24.3333 4.83696 24.3333 5.5Z" fill="white"/>
</g>
<defs>
<clipPath id="clip0_7_1031">
<rect width="29" height="24" fill="white"/>
</clipPath>
</defs>
</svg>
