<svg width="36" height="24" viewBox="0 0 36 24" fill="none" xmlns="http://www.w3.org/2000/svg">
<g clip-path="url(#clip0_7_1518)">
<path d="M27 10.2945V6H3V10.2945C4.08 10.2945 4.992 11.0651 4.992 12C4.992 12.9247 4.08 13.7055 3 13.7055V18H27V13.7055C25.92 13.7055 25.008 12.9247 25.008 12C25.008 11.0753 25.92 10.2945 27 10.2945ZM22.008 14.9897C22.008 15.226 21.768 15.4315 21.492 15.4315H8.508C8.37115 15.4315 8.2399 15.385 8.14313 15.3021C8.04636 15.2193 7.992 15.1069 7.992 14.9897V9.01027C7.992 8.77397 8.232 8.56849 8.508 8.56849H21.492C21.768 8.56849 22.008 8.77397 22.008 9.01027V14.9897ZM10.008 10.2945H19.992V13.7055H10.008V10.2945Z" fill="white"/>
</g>
<defs>
<clipPath id="clip0_7_1518">
<rect width="36" height="24" fill="white"/>
</clipPath>
</defs>
</svg>
