<svg width="35" height="24" viewBox="0 0 35 24" fill="none" xmlns="http://www.w3.org/2000/svg">
<g clip-path="url(#clip0_7_1431)">
<path fill-rule="evenodd" clip-rule="evenodd" d="M13.8182 7H23.2727C24.5265 7 25.7289 7.42143 26.6154 8.17157C27.5019 8.92172 28 9.93913 28 11V20H25.6364V17H4.36364V20H2V5H4.36364V14H13.8182V7ZM12.6364 10C12.6364 10.394 12.5447 10.7841 12.3665 11.1481C12.1883 11.512 11.9271 11.8427 11.5979 12.1213C11.2687 12.3999 10.8778 12.6209 10.4477 12.7716C10.0175 12.9224 9.5565 13 9.09091 13C8.62531 13 8.16428 12.9224 7.73412 12.7716C7.30397 12.6209 6.91312 12.3999 6.58389 12.1213C6.25467 11.8427 5.99351 11.512 5.81534 11.1481C5.63716 10.7841 5.54545 10.394 5.54545 10C5.54545 9.20435 5.91899 8.44129 6.58389 7.87868C7.2488 7.31607 8.1506 7 9.09091 7C10.0312 7 10.933 7.31607 11.5979 7.87868C12.2628 8.44129 12.6364 9.20435 12.6364 10Z" fill="white"/>
</g>
<defs>
<clipPath id="clip0_7_1431">
<rect width="35" height="24" fill="white"/>
</clipPath>
</defs>
</svg>
