<svg width="18" height="18" viewBox="0 0 18 18" fill="none" xmlns="http://www.w3.org/2000/svg">
<g clip-path="url(#clip0_7_1093)">
<path fill-rule="evenodd" clip-rule="evenodd" d="M0.75 6.74994L2.25 8.24994C4.04041 6.46011 6.46839 5.45465 9 5.45465C11.5316 5.45465 13.9596 6.46011 15.75 8.24994L17.25 6.74994C15.0606 4.56441 12.0935 3.33691 9 3.33691C5.90648 3.33691 2.93936 4.56441 0.75 6.74994ZM6.75 12.7499L9 14.9999L11.25 12.7499C10.9547 12.4542 10.6039 12.2196 10.2178 12.0596C9.83177 11.8995 9.41794 11.8171 9 11.8171C8.58206 11.8171 8.16823 11.8995 7.78215 12.0596C7.39608 12.2196 7.04534 12.4542 6.75 12.7499ZM5.25 11.2499L3.75 9.74994C5.14341 8.35948 7.03151 7.57858 9 7.57858C10.9685 7.57858 12.8566 8.35948 14.25 9.74994L12.75 11.2499C12.2576 10.7574 11.673 10.3667 11.0295 10.1001C10.3861 9.83351 9.69647 9.69631 9 9.69631C8.30353 9.69631 7.61388 9.83351 6.97045 10.1001C6.32702 10.3667 5.7424 10.7574 5.25 11.2499Z" fill="#BEBEBE"/>
</g>
<defs>
<clipPath id="clip0_7_1093">
<rect width="18" height="18" fill="white"/>
</clipPath>
</defs>
</svg>
