<svg width="30" height="24" viewBox="0 0 30 24" fill="none" xmlns="http://www.w3.org/2000/svg">
<g clip-path="url(#clip0_7_1038)">
<path fill-rule="evenodd" clip-rule="evenodd" d="M0.333374 8.99992L3.00004 10.9999C6.183 8.61348 10.4994 7.27286 15 7.27286C19.5007 7.27286 23.8171 8.61348 27 10.9999L29.6667 8.99992C25.7745 6.08588 20.4996 4.44922 15 4.44922C9.50045 4.44922 4.22558 6.08588 0.333374 8.99992ZM11 16.9999L15 19.9999L19 16.9999C18.475 16.6056 17.8515 16.2929 17.1651 16.0794C16.4788 15.866 15.743 15.7562 15 15.7562C14.257 15.7562 13.5213 15.866 12.835 16.0794C12.1486 16.2929 11.5251 16.6056 11 16.9999ZM8.33337 14.9999L5.66671 12.9999C8.14388 11.146 11.5005 10.1048 15 10.1048C18.4996 10.1048 21.8562 11.146 24.3334 12.9999L21.6667 14.9999C20.7913 14.3432 19.752 13.8222 18.6081 13.4668C17.4642 13.1114 16.2382 12.9284 15 12.9284C13.7619 12.9284 12.5358 13.1114 11.392 13.4668C10.2481 13.8222 9.20876 14.3432 8.33337 14.9999Z" fill="white"/>
</g>
<defs>
<clipPath id="clip0_7_1038">
<rect width="30" height="24" fill="white"/>
</clipPath>
</defs>
</svg>
